<?xml version="1.0" standalone="no"?>
<!DOCTYPE svg PUBLIC "-//W3C//DTD SVG 20010904//EN"
 "http://www.w3.org/TR/2001/REC-SVG-20010904/DTD/svg10.dtd">
<svg version="1.0" xmlns="http://www.w3.org/2000/svg"
 width="128.000000pt" height="128.000000pt" viewBox="0 0 128.000000 128.000000"
 preserveAspectRatio="xMidYMid meet">

<g transform="translate(0.000000,128.000000) scale(0.100000,-0.100000)"
fill="#000000" stroke="none">
<path d="M671 933 c-38 -39 -119 -172 -109 -177 12 -7 118 -36 132 -36 16 0
16 3 -4 35 -12 19 -17 35 -12 35 6 0 12 -6 15 -12 9 -27 16 0 8 29 -6 20 -5
35 1 41 6 6 14 30 18 54 4 24 11 51 15 61 14 33 -18 18 -64 -30z m-39 -85 c-7
-7 -12 -8 -12 -2 0 14 12 26 19 19 2 -3 -1 -11 -7 -17z"/>
<path d="M1185 847 c-47 -49 -88 -115 -82 -130 4 -10 -1 -13 -19 -9 -29 5 -29
-1 -5 -52 15 -32 20 -36 24 -20 4 15 5 15 6 2 1 -23 109 -84 123 -70 12 12
-19 62 -54 86 -17 12 -19 21 -13 55 4 23 10 41 13 41 4 0 15 19 24 43 38 96
34 109 -17 54z"/>
<path d="M926 714 c-15 -22 -16 -28 -5 -35 10 -6 7 -8 -11 -7 -17 2 -24 -1
-22 -11 3 -12 0 -12 -12 -1 -12 9 -16 9 -16 0 0 -7 -10 -3 -26 9 -14 11 -32
17 -39 15 -11 -5 -10 -12 7 -35 22 -29 18 -53 -4 -31 -7 7 -20 12 -30 12 -11
0 -18 7 -18 20 0 19 -10 24 -38 21 -8 -1 -21 4 -29 11 -14 11 -15 10 -9 -10 8
-25 7 -26 -28 -13 -15 6 -26 6 -28 1 -2 -6 -48 -14 -104 -20 -55 -5 -111 -13
-125 -18 -13 -5 -30 -7 -36 -5 -7 3 -13 0 -13 -5 0 -6 -8 -9 -17 -7 -10 1 -24
-2 -31 -8 -10 -8 -12 -7 -10 2 2 8 -13 22 -32 33 -19 11 -37 24 -38 29 -2 5
-8 6 -13 3 -6 -3 -5 -11 2 -20 6 -8 9 -18 5 -21 -4 -4 -11 -1 -16 7 -6 8 -10
11 -10 6 0 -6 -6 -1 -14 9 -8 11 -12 23 -10 27 3 4 -3 5 -13 1 -10 -4 -22 -12
-26 -20 -4 -7 -13 -13 -18 -13 -6 0 -7 5 -4 10 10 17 -11 11 -27 -7 -44 -51
-27 -105 40 -128 25 -8 57 -15 72 -15 14 0 51 -9 83 -20 31 -11 70 -20 87 -20
68 0 172 -23 177 -39 19 -62 87 -103 202 -123 113 -19 184 15 80 38 -28 6 -54
16 -58 21 -3 6 -18 13 -33 17 -16 3 -27 10 -27 14 3 19 -15 51 -30 55 -14 4
-14 5 2 6 12 1 17 10 17 31 0 35 4 37 32 10 25 -23 38 -18 38 15 0 18 4 23 15
19 8 -4 12 -10 9 -15 -12 -20 15 -7 28 14 10 15 12 31 7 50 -6 22 -5 26 5 18
19 -16 26 -3 15 28 -9 24 -8 25 6 7 8 -11 15 -36 16 -55 l1 -36 14 30 14 30
-5 -32 c-4 -17 -2 -34 4 -38 7 -4 8 0 4 11 -4 12 -3 15 5 10 8 -5 12 5 13 31
l1 38 13 -35 c13 -33 14 -33 21 -12 8 28 24 29 24 0 0 -36 13 -11 17 33 3 33
0 45 -17 61 -12 12 -18 23 -13 27 11 8 16 51 6 51 -4 0 -16 -12 -27 -26z
m-781 -112 c-4 -4 -10 -1 -12 6 -3 6 -9 10 -14 6 -5 -3 -9 -1 -9 4 0 18 13 21
27 6 9 -8 12 -18 8 -22z m88 -11 c-15 -13 -31 -17 -45 -13 -22 6 -22 6 -3 10
11 2 24 8 30 13 5 5 16 9 25 9 11 -1 9 -5 -7 -19z m537 -31 c0 -5 -4 -10 -10
-10 -5 0 -10 5 -10 10 0 6 5 10 10 10 6 0 10 -4 10 -10z"/>
<path d="M635 700 c3 -5 11 -10 16 -10 6 0 7 5 4 10 -3 6 -11 10 -16 10 -6 0
-7 -4 -4 -10z"/>
<path d="M1040 668 c0 -24 5 -38 16 -42 14 -5 16 -1 10 26 -10 49 -26 59 -26
16z"/>
<path d="M1003 640 c3 -11 1 -20 -4 -20 -5 0 -9 -5 -9 -11 0 -5 5 -7 10 -4 6
3 10 0 10 -7 0 -23 20 15 20 40 0 14 -6 22 -16 22 -11 0 -15 -6 -11 -20z"/>
<path d="M296 641 c-4 -7 -5 -15 -2 -18 9 -9 19 4 14 18 -4 11 -6 11 -12 0z"/>
<path d="M696 471 c-4 -7 -5 -15 -2 -18 9 -9 19 4 14 18 -4 11 -6 11 -12 0z"/>
</g>
</svg>
