<?xml version="1.0" encoding="UTF-8" standalone="no"?>
<!-- Created with Inkscape (http://www.inkscape.org/) -->

<svg
   version="1.1"
   id="svg283"
   width="170.66667"
   height="170.66667"
   viewBox="0 0 170.66667 170.66667"
   xmlns="http://www.w3.org/2000/svg"
   xmlns:svg="http://www.w3.org/2000/svg">
  <defs
     id="defs287" />
  <g
     id="g289">
    <g
       id="g36481">
      <path
         style="fill:#d5d5d5;stroke-width:1.33333"
         d="m 104.5676,136.96395 -5.959643,-1.59566 -2.366668,-3.89686 -2.366667,-3.89685 -0.007,-4.33333 -0.007,-4.33334 h -1.151515 -1.151516 l -3.394466,3.39447 -3.394468,3.39447 -5.445839,-0.32133 -5.445838,-0.32133 -2.726786,2.92686 -2.726786,2.92686 H 63.373195 58.32302 l -10.017935,-10.33333 -10.017934,-10.33333 -2.938362,-8.66667 -2.938364,-8.666667 -0.806298,-11 -0.806297,-11 H 27.464175 24.13052 L 16.662218,64.774915 9.1939148,58.641918 8.211062,56.923944 7.2282092,55.20597 l 1.6495195,-1.269838 1.6495193,-1.269836 9.766232,-1.684741 9.766231,-1.684741 2.952178,2.773426 2.952177,2.773427 5.281592,-6.678227 5.281591,-6.678227 4.666667,-3.227956 4.666666,-3.227956 5.058266,-2.103932 5.058264,-2.103933 6.941736,-1.76942 6.941735,-1.769422 0.666667,-5.049864 0.666666,-5.049864 6.335496,-5.358537 6.335496,-5.3585368 0.69695,0.6969497 0.696949,0.6969496 0.82404,8.8244425 0.824039,8.824442 -1.856484,2.24883 -1.856486,2.24883 1.706636,0.574272 1.706637,0.574272 10.960031,7.281472 10.96003,7.281471 5.66667,1.537301 5.66666,1.537302 v 1.46862 1.468621 l -1.74915,2.392113 -1.74916,2.392115 3.16674,6.196059 3.16674,6.196059 -0.68148,4.666666 -0.68148,4.666667 -0.40277,3.209863 -0.40277,3.209863 7.33333,1.733644 7.33334,1.733645 4.91014,0.05649 4.91015,0.05649 0.83981,2.645989 0.8398,2.645989 0.0729,5.687345 0.0729,5.687336 4.51049,5.00385 4.5105,5.00384 v 3.12284 3.12284 l -2.33334,2.00399 -2.33333,2.00398 -2.33333,0.82749 -2.33334,0.82748 v 2.50187 2.50186 l -2.6528,2.40075 -2.6528,2.40075 -8.79765,-0.82153 -8.79764,-0.82154 -3.7549,-1.87319 -3.7549,-1.87319 -2.83457,3.83396 -2.83466,3.83395 -4.96009,-0.17414 -4.96008,-0.17414 z m 15.42349,-3.08937 0.33616,-1.7 -0.67778,1.36667 -0.67778,1.36666 h -2.44444 -2.44444 l -0.67252,-1.66666 -0.67251,-1.66667 -0.10527,2.42189 -0.10526,2.4219 3.56384,-0.4219 3.56384,-0.42189 z m -2.79717,-2.96667 0.82404,-1.33333 h -0.66666 -0.66667 l -0.82405,1.33333 -0.82404,1.33334 h 0.66666 0.66667 z m 4.66666,-0.58797 v -0.58798 l -1.53934,-0.95137 -1.53935,-0.95137 0.95137,1.53935 0.95137,1.53934 h 0.58798 0.58797 z m 10.66667,-6.66667 v -0.58798 l -1.53934,-0.95137 -1.53935,-0.95136 0.95137,1.53934 0.95137,1.53935 h 0.58797 0.58798 z m -8.2575,-12.11397 -0.7464,-0.74639 -0.91038,2.39083 -0.91037,2.39084 1.65677,-1.64444 1.65677,-1.64445 z m 4.91346,-3.33179 -0.92086,-2.90136 -1.41104,1.41104 -1.41104,1.41104 1.73349,2.08873 1.73349,2.08873 0.59841,-0.59841 0.59841,-0.59841 z m 8.67737,-3.15694 v -3.19069 l -2.23672,-0.85831 -2.23672,-0.85831 -1.98114,1.98114 -1.98114,1.98114 2.9633,-0.77492 2.9633,-0.77492 0.7434,2.84277 0.7434,2.84278 h 0.51116 0.51116 z m -40.07303,-4.62814 5.55151,-2.485488 -3.739238,-0.754473 -3.739239,-0.754473 -2.333333,-0.902694 -2.333334,-0.902693 v 2.047415 2.047413 l -2.095238,2.095233 -2.095238,2.09524 h 2.6163 2.616299 z m -2.114099,-5.585665 3.694064,1.404481 h 3.913205 3.9132 l 5.27801,-5.278012 5.27801,-5.278012 2.52952,-5.055321 2.52951,-5.055322 0.83136,-4.36111 0.83136,-4.361112 -2.63888,-2.638889 -2.63889,-2.638889 h -1.85186 -1.85185 l 0.18519,2.242012 0.18518,2.242014 -3.48369,1.995538 -3.48369,1.99554 -3.84964,-1.630849 -3.84964,-1.630849 -2.531183,-1.898362 -2.531179,-1.898361 1.729687,-2.084147 1.729688,-2.084145 -3.531842,1.342804 -3.531841,1.342802 v -0.855888 -0.855886 l -0.902666,0.902665 -0.902665,0.902665 2.261264,1.653478 2.261264,1.653476 -2.100871,2.999413 -2.10087,2.999414 h -1.924395 -1.924395 v 2.555556 2.555554 l -1.666666,0.672515 -1.666667,0.672515 2.78598,0.105266 2.78598,0.10526 1.547353,3.396071 1.547354,3.396071 v 1.682423 1.682424 l -1.892519,2.588172 -1.892517,2.588173 H 84.41251 80.082806 l -0.555556,1.666667 -0.555556,1.666666 h 4.111112 4.11111 l 0.02965,1.666667 0.02965,1.666667 2.363087,-3.071148 2.363088,-3.071147 3.694064,1.40448 z M 120.83659,72.241246 v -4.666667 l 0.60976,2.333334 0.60976,2.333333 -0.60976,2.333333 -0.60976,2.333334 z m -15.8649,0.444444 0.88889,-0.888888 0.88889,0.888888 0.88889,0.888889 h -1.77778 -1.77777 z m 15.55556,-7.111111 v -1.777777 l 0.88889,0.888888 0.88889,0.888889 -0.88889,0.88889 -0.88889,0.888888 z m 32.66667,32.000001 0.82404,-1.333334 h -0.66667 -0.66667 l -0.82404,1.333334 -0.82404,1.333333 h 0.66667 0.66667 z m -79.777781,-4.88889 -0.88889,-0.888888 -0.888889,0.888888 -0.888888,0.88889 h 1.777777 1.777778 z m 7.281184,-12.111111 1.829927,-2.333333 -2,1.487636 -2.000001,1.487637 -2,0.740434 -2,0.740433 2.170074,0.105264 2.170075,0.105263 z m 27.070877,-25.536828 -0.63778,-0.637775 -2.30158,2.402972 -2.30159,2.402974 2.93936,-1.765198 2.93936,-1.765198 z m -3.24095,-15.384483 v -0.587977 l -1.53934,-0.951368 -1.53935,-0.951367 0.95137,1.539345 0.95137,1.539344 h 0.58797 0.58798 z"
         id="path36503" />
      <path
         style="fill:#c7c7c7;stroke-width:1.33333"
         d="m 104.52725,136.98507 -6,-1.57454 -2.331261,-4.58464 -2.331262,-4.58464 -0.0021,-3.66667 -0.0021,-3.66667 H 92.463528 91.06653 l -3.250066,3.50688 -3.250065,3.50688 -5.138003,-0.8216 -5.138003,-0.8216 -3.114018,3.31472 -3.114019,3.31472 h -4.814531 -4.814529 l -9.814884,-10.177 -9.814886,-10.177 -3.283883,-9.4428 -3.283882,-9.442809 -0.711475,-10.380195 -0.711475,-10.380193 h -3.270499 -3.2705 L 16.475294,64.574579 8.6787189,58.241246 8.6029835,55.933315 8.5272481,53.625384 11.527248,52.9858 l 3,-0.639585 7.786878,-1.505304 7.786879,-1.505304 2.982248,2.801676 2.982248,2.801676 5.230873,-6.54116 5.230875,-6.541162 6,-4.103854 6,-4.103856 8.50703,-2.70384 8.507029,-2.703842 h 2.492971 2.492971 v -5.124617 -5.124619 l 6.572541,-5.542049 6.572541,-5.5420486 h 0.625471 0.625469 l 0.940327,9.3633626 0.940326,9.363363 -1.719269,2.071591 -1.719268,2.071592 1.914264,1.211296 1.914265,1.211295 0.826977,0.02042 0.826977,0.02042 9.173019,6.702399 9.17303,6.702399 5.33333,1.522373 5.33333,1.522372 1.23517,1.077058 1.23516,1.077057 -2.31366,2.556556 -2.31365,2.556557 2.74272,5.117311 2.74271,5.117311 0.77706,4.142096 0.77706,4.142097 -2.02347,4.84286 -2.02348,4.842861 4.91553,1.379368 4.91552,1.379366 7.33333,0.818206 7.33334,0.818204 1.66666,2.096614 1.66667,2.096615 v 5.916893 5.916896 l 4.66667,5.16544 4.66666,5.16545 v 3.12284 3.12284 l -2.43832,2.20665 -2.43832,2.20665 h -2.22834 -2.22835 v 3.12668 3.12669 l -2.6528,2.40075 -2.6528,2.40075 -8.79765,-0.82154 -8.79765,-0.82153 -3.7549,-1.87319 -3.7549,-1.87319 -2.83456,3.83395 -2.83457,3.83396 -4.96009,-0.17414 -4.96008,-0.17414 z m 15.73333,-2.34382 1.6,-1.6 v -2.4 -2.4 h -1.70332 -1.70333 l -2.96334,2.0756 -2.96334,2.07561 v 1.92439 1.9244 h 3.06667 3.06666 z m 10.95794,-12.37036 -1.63525,-1.97036 6.80533,-6.8412 6.80532,-6.8412 v -1.18844 -1.18844 h 2 2 l -0.0107,-1 -0.0107,-1 -5.5805,-3.187982 -5.58051,-3.187978 -4.49146,5.18798 -4.49146,5.18798 -3.36026,5.14643 -3.36027,5.14643 3.69195,3.85357 3.69276,3.85357 h 2.58047 2.58047 z m 0.9754,-12.28208 -2.33334,-0.60976 v -2.5689 -2.5689 h 2.66667 2.66667 v 1.22428 1.22428 l 0.80932,2.10905 0.80932,2.10905 -1.14266,-0.15466 -1.14265,-0.15467 z m 22.19281,-7.86215 0.81144,-2.11459 -1.10228,-1.969664 -1.10228,-1.969661 -1.71568,2.067271 -1.71568,2.067274 0.77399,2.01698 0.77398,2.01698 h 1.23254 1.23252 z M 83.193916,100.09859 V 98.907913 H 81.416139 79.63836 v 1.872877 1.87288 l 1.777779,-0.6822 1.777777,-0.68219 z m 18.486884,-1.099922 7.74417,-3.909246 3.94738,-4.495818 3.94738,-4.49582 2.79326,-4.594937 2.79326,-4.594934 0.92834,-4.38752 0.92834,-4.387522 -2.03655,-3.108169 -2.03655,-3.108171 -3.42628,-0.654976 -3.42629,-0.654976 1.50826,1.817333 1.50825,1.817334 -1.617,1.948365 -1.617,1.948366 -2.44839,0.777088 -2.44839,0.777088 -4.76453,-1.990751 -4.764543,-1.990752 v -1.480058 -1.480058 l -1.333334,0.824045 -1.333333,0.824045 v -0.582096 -0.582097 l 2.255944,-1.829925 2.255946,-1.829927 -1.147171,1.902689 -1.147171,1.90269 4.835572,-3.858395 4.83557,-3.858396 -1.61101,-1.023877 -1.61101,-1.023876 -1,-0.02042 -1,-0.02042 v 1.857348 1.857348 l -2.10905,0.809319 -2.109053,0.809318 H 94.4182 89.860583 v 2 2 h 2 2 v 1.96576 1.965761 l -4.043595,2.091024 -4.043594,2.091024 0.840876,1.360566 0.840877,1.360568 -2.178163,2.406842 -2.178162,2.406842 3.047548,-0.557286 3.047546,-0.557288 1.666667,3.66558 1.666667,3.66558 v 1.501763 1.501761 l -3.159434,2.968133 -3.159434,2.968135 -3.507232,-0.88026 -3.507234,-0.880259 v 2.144544 2.144544 h 3.48877 3.488769 l -0.637207,3.333334 -0.637206,3.333335 h 4.519793 4.519792 z m 8.17978,3.405842 v -0.50341 l -2.33333,-1.82993 -2.33333,-1.829924 1.82992,2.333334 1.82993,2.33333 h 0.50341 0.5034 z m 20,-2.751241 v -0.587977 l -1.53934,-0.951368 -1.53935,-0.951367 0.95137,1.539345 0.95137,1.539348 h 0.58798 0.58797 z m -56.843853,-3.306208 -5.510524,-2.502288 -0.717547,-1.801763 -0.717547,-1.801764 -0.105264,1.686264 -0.105262,1.686266 4.333333,2.642084 4.333333,2.642085 2,-0.02429 2,-0.02429 -5.510522,-2.502286 z m 60.135843,-0.03892 0.78271,-1.266435 -2.76499,-1.479776 -2.76499,-1.479776 1.71504,2.746212 1.71504,2.746214 h 0.26724 0.26725 l 0.7827,-1.266436 z M 75.193916,93.57458 v -1.333334 l -2.333333,0.02042 -2.333334,0.02042 2,1.292499 2,1.292498 0.333334,0.02041 0.333333,0.02042 z m 2.546073,-5.854694 1.539258,-1.854693 -4.24163,-1.47864 -4.24163,-1.47864 h -0.630962 -0.630961 l 1.570528,1.892371 1.570527,1.89237 -2.407268,1.400418 -2.407268,1.400418 4.170073,0.04054 4.170075,0.04055 z m 11.453927,0.52136 0.824046,-1.333333 h -0.666667 -0.666667 l -0.824045,1.333333 -0.824045,1.333334 h 0.666666 0.666667 z m -38,-6 v -2 h 1.177825 1.177824 l 0.764936,-2.925117 0.764936,-2.925119 2.970255,2.591785 2.970254,2.591784 -3.669458,-4.910224 -3.669458,-4.910224 -2.57689,2.576891 -2.576891,2.576891 h -2.666667 -2.666667 v 0.754321 0.754323 l 1.532939,2.912344 1.532939,2.912345 1.467061,0.979583 1.467062,0.979583 1,0.02042 1,0.02042 z m 29.137746,-1.097665 1.464265,-1.764331 -3.954067,0.580333 -3.954067,0.580334 0.731751,1.183998 0.731751,1.183998 h 1.75805 1.758053 z m -0.09492,-4.372787 4.957174,-2.137117 -7.587981,-2.895308 -7.587982,-2.895307 -0.935128,-0.935129 -0.935129,-0.93513 8.624336,0.805354 8.624336,0.805353 3.115223,-1.667217 3.115223,-1.667216 -3.883632,-1.632945 -3.883631,-1.632945 -1.989028,-2.396631 -1.989028,-2.396632 2.989544,0.948844 2.989544,0.948844 v -1.407464 -1.407464 l 2.333333,0.195539 2.333334,0.19554 5,-0.211259 5,-0.211258 v -1.767582 -1.767581 l -3.328076,-3.126565 -3.328076,-3.126565 0.60118,-0.60118 0.60118,-0.60118 6.393562,3.586974 6.39356,3.586972 -3.66666,-3.361025 -3.66667,-3.361026 v -0.730621 -0.730622 h 1.0331 1.0331 l 7.50058,7.092853 7.50059,7.092853 3.42617,2.244913 3.42617,2.244915 -0.82919,-2.337767 -0.82918,-2.337766 -2.13067,-2.55942 -2.13067,-2.559422 2.23585,0.8135 2.23585,0.813499 1.49454,-1.800809 1.49454,-1.80081 -3.92899,-0.86295 -3.92899,-0.862951 -7.35367,-5.710248 -7.35367,-5.71025 -6.447731,-2.764866 -6.447729,-2.764868 -4.991236,-0.928614 -4.991236,-0.928613 -3.505955,0.879939 -3.505954,0.879938 2.49719,1.876655 2.49719,1.876655 -6.889168,-0.782444 -6.889166,-0.782444 -5.93463,2.872904 -5.934629,2.872905 -2.436606,2.692419 -2.436606,2.69242 -0.454118,2.940604 -0.454117,2.940604 2.051248,5.3868 2.051248,5.386799 6.329939,6.130244 6.329939,6.130245 4,2.096239 4,2.09624 1.709492,0.05339 1.70949,0.05338 z m 4.957174,-35.286231 -4,-2.561752 -1.333333,-0.491576 -1.333334,-0.491576 0.712658,-0.784087 0.712659,-0.784087 5.620674,2.854454 5.620676,2.854454 v 1.080427 1.080425 l -1,-0.09747 -1,-0.09747 -4,-2.561752 z m 9.25484,-0.534247 -2.588173,-1.957595 1.503407,-0.04241 1.503408,-0.0424 1.659852,2 1.659852,2 h -0.575087 -0.575086 z m 18.745164,24.624263 0.82404,-1.333333 h -1.33333 -1.33333 l -0.82405,1.333333 -0.82405,1.333334 h 1.33334 1.33333 z M 43.557289,51.20844 l 2.363372,-4.967195 -2.127739,2.666667 -2.127739,2.666667 -1.282545,2.333333 -1.282547,2.333334 1.046912,-0.0328 1.046912,-0.0328 2.363374,-4.967196 z"
         id="path36501" />
      <path
         style="fill:#b6b6b6;stroke-width:1.33333"
         d="m 104.52725,136.98507 -6,-1.57454 -2.331261,-4.58464 -2.331262,-4.58464 -0.0021,-3.66667 -0.0021,-3.66667 H 92.463528 91.06653 l -3.250066,3.50688 -3.250065,3.50688 -5.138003,-0.8216 -5.138003,-0.8216 -3.114018,3.31472 -3.114019,3.31472 h -4.814531 -4.814529 l -9.814884,-10.177 -9.814886,-10.177 -3.283883,-9.4428 -3.283882,-9.442809 -0.711475,-10.380195 -0.711475,-10.380193 h -3.270499 -3.2705 L 16.475294,64.574579 8.6787189,58.241246 8.6029835,55.933315 8.5272481,53.625384 11.527248,52.9858 l 3,-0.639585 7.786878,-1.505304 7.786879,-1.505304 2.982248,2.801676 2.982248,2.801676 5.230873,-6.54116 5.230875,-6.541162 6,-4.103854 6,-4.103856 8.50703,-2.70384 8.507029,-2.703842 h 2.492971 2.492971 v -5.124617 -5.124619 l 6.572541,-5.542049 6.572541,-5.5420486 h 0.625471 0.625469 l 0.940327,9.3633626 0.940326,9.363363 -1.719269,2.071591 -1.719268,2.071592 1.914264,1.211296 1.914265,1.211295 0.826977,0.02042 0.826977,0.02042 9.173019,6.702399 9.17303,6.702399 5.33333,1.522373 5.33333,1.522372 1.23517,1.077058 1.23516,1.077057 -2.31366,2.556556 -2.31365,2.556557 2.74272,5.117311 2.74271,5.117311 0.77706,4.142096 0.77706,4.142097 -2.02347,4.84286 -2.02348,4.842861 4.91553,1.379368 4.91552,1.379366 7.33333,0.818206 7.33334,0.818204 1.66666,2.096614 1.66667,2.096615 v 5.916893 5.916896 l 4.66667,5.16544 4.66666,5.16545 v 3.12284 3.12284 l -2.43832,2.20665 -2.43832,2.20665 h -2.22834 -2.22835 v 3.12668 3.12669 l -2.6528,2.40075 -2.6528,2.40075 -8.79765,-0.82154 -8.79765,-0.82153 -3.7549,-1.87319 -3.7549,-1.87319 -2.83456,3.83395 -2.83457,3.83396 -4.96009,-0.17414 -4.96008,-0.17414 z m 15.73333,-2.34382 1.6,-1.6 v -2.4 -2.4 h -1.70332 -1.70333 l -2.96334,2.0756 -2.96334,2.07561 v 1.92439 1.9244 h 3.06667 3.06666 z m 10.95794,-12.37036 -1.63525,-1.97036 6.80533,-6.8412 6.80532,-6.8412 v -1.18844 -1.18844 h 2 2 l -0.0107,-1 -0.0107,-1 -5.5805,-3.187982 -5.58051,-3.187978 -4.49146,5.18798 -4.49146,5.18798 -3.36026,5.14643 -3.36027,5.14643 3.69195,3.85357 3.69276,3.85357 h 2.58047 2.58047 z m 0.9754,-12.28208 -2.33334,-0.60976 v -2.5689 -2.5689 h 2.66667 2.66667 v 1.22428 1.22428 l 0.80932,2.10905 0.80932,2.10905 -1.14266,-0.15466 -1.14265,-0.15467 z m -72.176088,2.55804 -0.794678,-5.79781 4.476151,4.74611 4.47615,4.7461 h 3.400181 3.40018 l 2.442384,0.83595 2.442383,0.83595 -8.259931,-5.79824 -8.259931,-5.79825 0.433115,-0.43311 0.433116,-0.43312 5.826815,3.06208 5.826816,3.06207 h 6.969697 6.969696 l 3.342299,-3.3423 3.342298,-3.3423 -11.645329,0.25937 -11.645328,0.25938 5,-2.05968 5,-2.05968 v -0.91419 -0.914187 l -5.666667,-1.530764 -5.666666,-1.530763 -2.537034,-1.876838 -2.537033,-1.876838 0.949056,-1.535605 0.949056,-1.535605 h 3.758051 3.758052 l 1.557384,-1.876535 1.557385,-1.876533 -5.060792,-1.717402 -5.060792,-1.717401 -1.495087,-0.262904 -1.495085,-0.262903 -3.346469,-2.192691 -3.346469,-2.19269 -5.338357,-7.617138 -5.338357,-7.617137 -2.175114,-5.214748 -2.175113,-5.214748 0.757397,-2.785252 0.757398,-2.785253 -2.166739,2.666667 -2.166738,2.666667 -1.203778,2.186155 -1.203779,2.186156 2.634812,0.689018 2.634811,0.689019 v 6.249652 6.249652 l -2.83948,0.742542 -2.839479,0.74254 0.86786,9.337842 0.867861,9.337845 2.547748,5.461456 2.547749,5.461454 5.476198,6 5.476199,6 0.739863,2.92422 0.739862,2.92422 -1.048134,1.74245 -1.048136,1.74245 2.398574,-1.9483 2.398575,-1.9483 z m 41.398308,-4.91362 v -1.94135 l -1.11111,0.68671 -1.111113,0.6867 v 1.25465 1.25464 h 1.111113 1.11111 z m 5.73537,-0.39198 0.0424,2.33333 h 1.25464 1.25464 l 0.7827,-1.26644 0.7827,-1.26643 -2.37067,-1.22006 -2.37068,-1.22006 -1.66667,0.5976 -1.66666,0.59761 v 2.14373 2.14373 l 1.95759,-2.58817 1.9576,-2.58818 0.0424,2.33334 z m 47.23522,-5.11459 0.81144,-2.11459 -1.10228,-1.969664 -1.10228,-1.969661 -1.71568,2.067271 -1.71568,2.067274 0.77399,2.01698 0.77398,2.01698 h 1.23254 1.23252 z m -52.70593,-3.127992 7.74417,-3.909246 3.94738,-4.495818 3.94738,-4.49582 2.79326,-4.594937 2.79326,-4.594934 0.92834,-4.38752 0.92834,-4.387522 -2.03655,-3.108169 -2.03655,-3.108171 -3.42628,-0.654976 -3.42629,-0.654976 1.50826,1.817333 1.50825,1.817334 -1.617,1.948365 -1.617,1.948366 -2.44839,0.777088 -2.44839,0.777088 -4.76453,-1.990751 -4.764543,-1.990752 v -1.480058 -1.480058 l -1.333334,0.824045 -1.333333,0.824045 v -0.582096 -0.582097 l 2.255944,-1.829925 2.255946,-1.829927 -1.147171,1.902689 -1.147171,1.90269 4.835572,-3.858395 4.83557,-3.858396 -1.61101,-1.023877 -1.61101,-1.023876 -1,-0.02042 -1,-0.02042 v 1.857348 1.857348 l -2.10905,0.809319 -2.109053,0.809318 H 94.4182 89.860583 v 2 2 h 2 2 v 1.96576 1.965761 l -4.043595,2.091024 -4.043594,2.091024 0.840876,1.360566 0.840877,1.360568 -2.178163,2.406842 -2.178162,2.406842 3.047548,-0.557286 3.047546,-0.557288 1.666667,3.66558 1.666667,3.66558 v 1.501763 1.501761 l -3.159434,2.968133 -3.159434,2.968135 -3.507232,-0.88026 -3.507234,-0.880259 v 2.144544 2.144544 h 3.48877 3.488769 l -0.637207,3.333334 -0.637206,3.333335 h 4.519793 4.519792 z m 8.17978,3.405842 v -0.50341 l -2.33333,-1.82993 -2.33333,-1.829924 1.82992,2.333334 1.82993,2.33333 h 0.50341 0.5034 z m 20,-2.751241 v -0.587977 l -1.53934,-0.951368 -1.53935,-0.951367 0.95137,1.539345 0.95137,1.539348 h 0.58798 0.58797 z m 3.29199,-3.345125 0.78271,-1.266435 -2.76499,-1.479776 -2.76499,-1.479776 1.71504,2.746212 1.71504,2.746211 h 0.26724 0.26725 z M 75.193916,93.57458 v -1.333334 l -2.333333,0.02042 -2.333334,0.02042 2,1.292499 2,1.292498 0.333334,0.02041 0.333333,0.02042 z m 14.12093,-6.323515 -0.61018,-0.61018 -1.422042,0.878869 -1.422041,0.878871 v 1.417904 1.417903 l 2.032221,-1.686594 2.032222,-1.686593 z m 35.974314,-2.438391 -2.22223,-2.222221 -0.93441,0.934411 -0.93441,0.934412 2.56724,1.877209 2.56723,1.877208 0.5894,-0.589397 0.5894,-0.589399 z m -44.957498,-3.669093 1.464265,-1.764331 -3.954067,0.580333 -3.954067,0.580334 0.731751,1.183998 0.731751,1.183998 h 1.75805 1.758053 z m -0.09492,-4.372787 4.957174,-2.137117 -7.587981,-2.895308 -7.587982,-2.895307 -0.935128,-0.935129 -0.935129,-0.93513 8.624336,0.805354 8.624336,0.805353 3.059248,-1.63726 3.059248,-1.63726 -5.585674,-3.330895 -5.585674,-3.330893 0.780756,-0.780756 0.780755,-0.780756 1.577779,1.577778 1.577777,1.577778 h 1.209319 1.209318 l -0.757948,-1.975179 -0.757946,-1.975177 2.281962,0.186436 2.281962,0.186437 5,-0.211259 5,-0.211258 v -1.767582 -1.767581 l -3.328076,-3.126565 -3.328076,-3.126565 0.60118,-0.60118 0.60118,-0.60118 6.393562,3.586974 6.39356,3.586972 -3.66666,-3.361025 -3.66667,-3.361026 v -0.730621 -0.730622 h 1.0331 1.0331 l 7.50058,7.092853 7.50059,7.092853 3.46631,2.271217 3.46632,2.271219 v -1.184259 -1.18426 l -2.966,-3.770662 -2.96601,-3.770663 2.20186,0.844929 2.20185,0.844931 1.49454,-1.800809 1.49454,-1.80081 -3.92899,-0.86295 -3.92899,-0.862951 -7.35367,-5.710248 -7.35367,-5.71025 -6.447731,-2.764866 -6.447729,-2.764868 -4.991236,-0.928614 -4.991236,-0.928613 -3.505955,0.879939 -3.505954,0.879938 2.49719,1.876655 2.49719,1.876655 -6.687041,-0.758506 -6.687041,-0.758505 -4.646293,1.946605 -4.646292,1.946606 -4.333333,3.653909 -4.333333,3.653908 v 3.818739 3.818737 l 1.6081,3.729404 1.6081,3.729404 3.890806,5.067593 3.890806,5.06759 6.834427,3.919898 6.834428,3.919896 1.709492,0.01253 1.70949,0.01249 z m 4.957174,-35.286231 -4,-2.561752 -1.333333,-0.491576 -1.333334,-0.491576 0.712658,-0.784087 0.712659,-0.784087 5.620674,2.854454 5.620676,2.854454 v 1.080427 1.080425 l -1,-0.09747 -1,-0.09747 -4,-2.561752 z m 9.25484,-0.534247 -2.588173,-1.957595 1.503407,-0.04241 1.503408,-0.0424 1.659852,2 1.659852,2 h -0.575087 -0.575086 z m 34.078494,37.369619 v -0.587977 l -1.53934,-0.951368 -1.53935,-0.951367 0.95137,1.539346 0.95137,1.539344 h 0.58797 0.58798 z m -15.33333,-12.745356 0.82404,-1.333333 h -1.33333 -1.33333 l -0.82405,1.333333 -0.82405,1.333334 h 1.33334 1.33333 z m 13.55555,-0.888889 -0.88889,-0.888888 v 1.777777 1.777778 l 0.88889,-0.888888 0.88889,-0.88889 z m -91.999999,-4 -0.888889,-0.888888 v 1.777777 1.777777 l 0.888889,-0.888888 0.888888,-0.888889 z m 53.333335,-34.666668 -0.88889,-0.888888 v 1.777778 1.777777 l 0.88889,-0.888888 0.888888,-0.888889 z"
         id="path36499" />
      <path
         style="fill:#9d9d9d;stroke-width:1.33333"
         d="m 104.52725,136.98507 -6,-1.57454 -2.331261,-4.58464 -2.331262,-4.58464 -0.0021,-3.66667 -0.0021,-3.66667 H 92.463528 91.06653 l -3.250066,3.50688 -3.250065,3.50688 -5.138003,-0.8216 -5.138003,-0.8216 -3.114018,3.31472 -3.114019,3.31472 h -4.710475 -4.710473 l -10.082463,-10.46898 -10.082463,-10.46898 -3.264539,-9.86435 -3.26454,-9.864354 -0.04344,-9.660175 -0.04344,-9.660173 -4,-0.02535 -4,-0.02535 -7.666667,-6.758259 -7.6666669,-6.758259 v -1.79501 -1.795018 l 7.6666669,-1.539357 7.666667,-1.539356 2.75097,-0.637216 2.750971,-0.637216 3.11343,2.521103 3.113429,2.521102 9.468934,-9.577292 9.468933,-9.577304 10.671212,-3.528436 10.671214,-3.528435 h 2.328786 2.328789 v -4.811236 -4.811236 l 6.333333,-5.841211 6.333333,-5.8412102 0.864679,-0.01422 0.864677,-0.01422 0.944435,9.4042772 0.944436,9.404277 -2.204249,2.435668 -2.204248,2.435667 3.184412,0.799236 3.184411,0.799238 9.21072,6.729884 9.21073,6.729884 5.33333,1.522373 5.33333,1.522372 1.23517,1.077058 1.23516,1.077057 -2.4109,2.664007 -2.41089,2.664008 2.14947,3.280504 2.14947,3.280504 1.27122,5.657789 1.27122,5.657791 -1.78661,5.185687 -1.78662,5.185688 1.54166,0.458236 1.54165,0.458235 6.2571,1.451948 6.25709,1.451946 h 4.696 4.69599 l 1.45442,2.717608 1.45442,2.717608 -0.40751,5.472522 -0.40751,5.472526 5,4.98634 5,4.98634 v 3.28354 3.28355 l -2.43832,2.20665 -2.43832,2.20665 h -2.22834 -2.22835 v 2.36999 2.36999 l -2.0756,2.96335 -2.07561,2.96334 h -5.33396 -5.33398 l -6.25709,-1.51462 -6.25709,-1.51461 -1.26667,-1.15205 -1.26667,-1.15206 h -1.06666 -1.06667 v 1.79335 1.79335 l -2.43832,2.20665 -2.43832,2.20665 -4.56168,-0.17414 -4.56168,-0.17414 z m 15.73333,-2.34382 1.6,-1.6 v -2.4 -2.4 h -1.82018 -1.82019 l -3.52585,2.77343 -3.52585,2.77343 0.75806,1.22656 0.75806,1.22658 h 2.98798 2.98797 z m 12.31111,-10.88889 -1.37777,-1.37778 v -1.76165 -1.76166 l 7.07546,-7.30501 7.07546,-7.30501 h 1.66989 1.66989 l -0.83581,-1.35239 -0.83583,-1.35239 -5.52477,-2.818529 -5.52479,-2.818532 -5.38475,6.212691 -5.38475,6.21269 -2.90413,5.05581 -2.90413,5.0558 5.16163,3.34687 5.16164,3.34687 h 2.12027 2.12028 z m 0.28889,-14.21933 -3,-1.20585 v -1.3763 -1.3763 h 2.51116 2.51116 l 0.69735,2.66667 0.69735,2.66666 -0.20851,-0.0845 -0.20851,-0.0845 -3,-1.20585 z m -72.873254,2.79125 -0.825182,-6.02036 3.691391,4.42169 3.69139,4.42169 5.991163,1.09794 5.991161,1.09793 0.263602,-0.25901 0.2636,-0.259 -7.860535,-5.25058 -7.860535,-5.25058 0.436786,-0.43678 0.436785,-0.43679 5.826815,3.06208 5.826816,3.06207 h 6.969697 6.969696 l 3.466567,-3.46657 3.466566,-3.46656 -11.769597,0.33675 -11.769596,0.33675 3.751911,-1.11101 3.751911,-1.111 1.914756,-1.58911 1.914756,-1.589102 v -1.248764 -1.248763 l -1.435795,0.887369 -1.435793,0.887371 -5.792514,-2.212181 -5.792513,-2.212182 -1.473064,-1.774933 -1.473066,-1.774935 4.567395,-0.856848 4.567395,-0.856849 1.53751,-1.852585 1.53751,-1.852587 -3.070199,-0.953725 -3.0702,-0.953726 -3.907419,-2.753961 -3.907418,-2.753962 0.986108,1.595556 0.986108,1.595556 h -1.150467 -1.150467 l -4.060144,-4.333333 -4.060143,-4.333333 -4.868078,-6.52507 -4.86808,-6.525071 0.05338,-2.141596 0.05338,-2.141597 2.099755,4 2.099753,4 4.846863,5.112979 4.846863,5.11298 4.946883,2.553687 4.946882,2.553688 h 2.851612 2.851612 l 4.677646,-2.219688 4.677645,-2.219688 -7.142806,-2.60976 -7.142807,-2.609762 -1.333334,-1.32041 -1.333333,-1.320411 3.333333,1.051119 3.333334,1.051118 4.695447,-0.151802 4.695446,-0.151803 3.887692,-1.478099 3.887692,-1.478097 -3.916472,-2.021331 -3.916472,-2.021332 -1.333333,-1.329021 -1.333333,-1.329022 2.333333,0.888312 2.333333,0.888314 v -1.324594 -1.324593 l 6.333334,-0.947888 6.333333,-0.947887 1.115873,-0.687142 1.11587,-0.687142 -4.377423,-4.516362 -4.377432,-4.516363 h 0.792125 0.792124 l 5.802756,3.317273 5.80277,3.317272 1.28297,0.01606 1.28297,0.01606 -4.61631,-3.945812 -4.616293,-3.945814 1.033633,-0.05419 1.03363,-0.05419 8.96637,7.951755 8.96636,7.951755 3.66667,3.296547 3.66667,3.296545 v -0.669289 -0.669289 l -1.49995,-2.912345 -1.49995,-2.912345 -2.83339,-3.215 -2.83338,-3.215001 1.72507,0.996454 1.72508,0.996454 1.95707,-1.62423 1.95708,-1.624228 -6.34882,-3.165978 -6.34881,-3.165978 -7.02578,-5.183495 -7.025781,-5.183496 -8.532861,-2.309737 -8.532863,-2.309739 -5.015776,0.940966 -5.015776,0.940965 1.643066,1.015471 1.643067,1.01547 -5.896868,0.08915 -5.896868,0.08915 -4.505114,2.289109 -4.505113,2.289107 -5.687353,4.606846 -5.687355,4.606847 -1.979312,3.82757 -1.979314,3.827569 v 0.584732 0.584732 l 2.333334,-0.185185 2.333333,-0.185186 -0.199036,4 -0.199035,4 -0.134298,3.000001 -0.134298,3 h -2.402537 -2.402536 l 0.89432,8.333333 0.894321,8.333334 1.5039,5.333333 1.503899,5.333333 7.414564,8.666665 7.414564,8.66667 -0.560913,3.01166 -0.560915,3.01166 1.959964,-1.62663 1.959963,-1.62662 z m -14.527398,-59.203946 -0.685959,-1.787579 1.189556,-1.879088 1.189556,-1.879088 0.02042,3.666667 0.02042,3.666666 h -0.524015 -0.524015 z m 39.733988,-12.247203 -5.333333,-3.28489 1.333333,-0.0019 1.333334,-0.0019 4.333333,2.642085 4.333333,2.642084 v 0.686266 0.686302 l -0.333333,-0.04161 -0.333333,-0.04161 -5.333334,-3.28489 z m 8.009439,-0.616614 -0.814607,-1.31806 2.069251,0.794046 2.069251,0.794046 v 0.524015 0.524015 h -1.254644 -1.254644 z m 24.657225,75.396753 v -0.58798 l -1.53934,-0.95137 -1.53935,-0.95136 0.95137,1.53934 0.95137,1.53935 h 0.58798 0.58797 z m -16.44444,-8.02004 v -1.94135 l -1.11111,0.68671 -1.111113,0.6867 v 1.25465 1.25464 h 1.111113 1.11111 z m 5.73537,-0.39198 0.0424,2.33333 h 1.25464 1.25464 l 0.73068,-1.18226 0.73068,-1.18225 -1.81633,-1.50742 -1.81632,-1.50741 -2.169,0.83232 -2.16899,0.83232 v 2.11219 2.11219 l 1.95759,-2.58817 1.9576,-2.58818 0.0424,2.33334 z m 18.04241,-3 0.82404,-1.33334 h -0.66666 -0.66667 l -0.82405,1.33334 -0.82404,1.33333 h 0.66667 0.66666 z m -25.333337,-1.33334 0.824047,-1.33333 h -0.66667 -0.666665 l -0.824045,1.33333 -0.824045,1.33334 h 0.666666 0.666667 z m 54.662877,-1.3214 0.84259,-2.654734 -0.83143,-1.345264 -0.83141,-1.345266 h -1.1648 -1.16479 l -0.84258,2.654735 -0.84259,2.654739 0.83143,1.34526 0.83141,1.34527 h 1.1648 1.16479 z m -56.368077,-0.83104 4.162377,-2.152452 3.7547,2.217962 3.75471,2.21796 -0.79261,-2.06551 -0.79261,-2.065517 h -2.09735 -2.09735 l 5.4421,-4.658231 5.44209,-4.658232 4.02576,-6.07778 4.02575,-6.07778 0.90342,-5.347284 0.90342,-5.347283 -2.21106,-2.443188 -2.21105,-2.443187 -3.02495,-0.578257 -3.02496,-0.578256 0.54342,2.842719 0.54342,2.842719 -3.14294,1.432021 -3.14294,1.43202 -4.96241,-1.979273 -4.962403,-1.979272 v -1.190729 -1.190728 -1 -1 l 1.000003,-0.06339 1,-0.06339 4.3338,-2.722376 4.33381,-2.722379 -3.33381,-1.518984 -3.3338,-1.518984 v 2.592158 2.592157 l -6.66667,0.884365 -6.666667,0.884364 v 1.828227 1.828225 h 2 2 v 1.170074 1.170075 l -2.194117,1.829925 -2.194118,1.829927 -3.472549,1.558374 -3.472549,1.558375 2.333333,0.108292 2.333333,0.108292 v 1.242541 1.242542 l -3.872493,2.757458 -3.872495,2.757459 -3.794172,0.09024 -3.794173,0.09024 2.913224,1.408124 2.913224,1.408126 3.59992,-2.831699 3.599921,-2.831699 2.153523,0.0104 2.153521,0.0104 1.666667,3.588751 1.666667,3.58875 v 1.29586 1.29586 l -2.206651,2.43832 -2.206649,2.438326 h -4.460018 -4.460016 v 2 2 h 3.477878 3.477877 l -0.836613,3.333334 -0.836614,3.333328 h 4.758283 4.758283 z m 33.609167,-3.074777 2.31727,-2.560553 -2.64641,-1.416316 -2.64641,-1.416316 0.6913,2.643536 0.6913,2.643536 h -1.56753 -1.56753 l 0.82404,1.333333 0.82405,1.333337 h 0.38133 0.38132 z M 75.193916,93.57458 v -1.333334 l -2.333333,0.02042 -2.333334,0.02042 2,1.292499 2,1.292498 0.333334,0.02041 0.333333,0.02042 z M 89.860583,87.987484 V 86.68569 l -1.583333,0.527779 -1.583334,0.527777 -0.52808,1.58424 -0.52808,1.58424 2.111414,-0.810225 2.111413,-0.810225 z m 37.815507,-0.412904 -0.76748,-2 h -1.09794 -1.09795 l -0.52481,-3 -0.52482,-3.000001 -1.1236,2.541011 -1.1236,2.541011 3.03673,2.458989 3.03672,2.45899 h 0.47711 0.47711 z m 0.85116,-9.254645 v -0.587977 l -1.53934,-0.951368 -1.53935,-0.951367 0.95137,1.539346 0.95137,1.539344 h 0.58797 0.58798 z m -15.33333,-12.745356 0.82404,-1.333333 h -2.07869 -2.07869 v 1.333333 1.333334 h 1.25465 1.25464 z M 34.749471,60.68569 33.860582,59.796802 v 1.777777 1.777777 l 0.888889,-0.888888 0.888888,-0.888889 z m 7.111111,-0.444444 v -1.333334 h -1.412023 -1.412022 l 0.824045,1.333334 0.824045,1.333333 h 0.587978 0.587977 z m 46.222224,-34.222224 -0.88889,-0.888888 v 1.777778 1.777777 l 0.88889,-0.888888 0.888888,-0.888889 z"
         id="path36497" />
      <path
         style="fill:#9c9c9c;stroke-width:1.33333"
         d="m 110.52725,138.20781 -1.33333,-0.48959 -5.52045,-1.41717 -5.520451,-1.41718 -2.146217,-4.52281 -2.146219,-4.52282 v -3.60782 -3.60781 l -2.109049,0.80932 -2.109051,0.80932 h -1.068775 -1.068774 l -0.745934,2.85245 -0.745933,2.85245 -5.66112,-0.75931 -5.66112,-0.75932 -3.850756,3.2402 -3.850756,3.24019 h -4.179932 -4.179934 l -7.190493,-7.66666 -7.190494,-7.66667 -3.025312,-4 -3.025311,-4 -3.087854,-9.333334 -3.087854,-9.333333 -0.08077,-9.386255 -0.08078,-9.386255 -3.413441,0.500422 -3.413441,0.500421 -8.253226,-6.896231 -8.2532259,-6.896231 v -1.762296 -1.762297 l 10.3333339,-1.875863 10.333333,-1.875864 3.765699,2.744187 3.765699,2.744185 1.419134,-2.657294 1.419134,-2.657296 6.902964,-6.789609 6.902963,-6.789609 9.245537,-3.521108 9.245538,-3.521108 4.303046,-0.849892 4.303047,-0.849894 0.853832,-4.83939 0.853832,-4.839391 4.780386,-5 4.780385,-5.0000003 h 1.53946 1.539461 l 0.860075,8.2287473 0.860075,8.228748 -1.980175,3.022128 -1.980175,3.022128 2.730924,0.866763 2.730926,0.866761 8.427659,5.769797 8.42765,5.769798 4.08525,2.112565 4.08525,2.112566 h 2.73288 2.73288 v 2.503406 2.503408 l -1.94993,1.618302 -1.94994,1.6183 2.86459,3.874557 2.86458,3.874557 0.56663,7.833609 0.56663,7.833608 -1.48128,0.915482 -1.48128,0.915483 v 1.654543 1.654541 l 7.74693,1.600103 7.74692,1.600101 3.91975,0.02041 3.91973,0.02041 1.99748,1.262725 1.99748,1.262726 0.20886,7.362746 0.20886,7.362747 3.98147,3.35018 3.98145,3.35018 0.84447,3.36462 0.84447,3.36462 -1.40408,2.62357 -1.4041,2.62356 -3.14981,0.79055 -3.1498,0.79056 -0.78132,3.9066 -0.78132,3.90659 -3.45521,1.57431 -3.45523,1.57429 -9.55857,-1.6391 -9.55857,-1.63911 -1.28326,-1.28326 -1.28327,-1.28327 h -1.06666 -1.06667 v 1.79335 1.79335 l -2.43832,2.20665 -2.43832,2.20665 -3.89501,-0.10533 -3.89502,-0.1052 -1.33333,-0.48959 z m 8.75432,-2.01347 2.57901,-1.38025 v -3.28642 -3.28642 h -1.82018 -1.82019 l -3.51315,2.76344 -3.51314,2.76344 v 1.1388 1.13878 l 2.33333,0.60976 2.33333,0.60978 0.42099,0.15466 0.42099,0.15467 z m 11.4037,-10.61976 h 3.26914 l -1.41989,-2.65308 -1.41988,-2.65308 2.15892,-3.29493 2.15892,-3.29493 2.21405,-0.71522 2.21405,-0.71523 2.27132,-4.00343 2.27132,-4.00343 h 2.22527 2.22528 l -1.48892,-1.79405 -1.48892,-1.79404 -5.67435,-2.515674 -5.67433,-2.515676 -1.7619,-1.690282 -1.76191,-1.690282 h -2.06802 -2.06802 l 1.53062,1.84429 1.53063,1.844289 -2.03404,0.780531 -2.03403,0.78053 V 96.1994 94.907913 h -1.36407 -1.36407 l 2.212,3.375941 2.21201,3.375946 2.25705,-2.042612 2.25706,-2.042608 h 0.97438 0.97438 l -5.328,6.33333 -5.32799,6.33334 -2.04895,3.967 -2.04895,3.96701 1.96424,1.09925 1.96425,1.09924 v 2.33375 2.33375 l 1.65,1.65 1.65,1.65 0.46111,-1.38334 0.46111,-1.38333 z m -70.697944,-13.2503 -0.825182,-6.02036 3.691391,4.42169 3.69139,4.42169 5.991163,1.09794 5.991161,1.09793 0.263602,-0.25901 0.2636,-0.259 -7.860535,-5.25058 -7.860535,-5.25058 0.436786,-0.43678 0.436785,-0.43679 5.826815,3.06208 5.826816,3.06207 h 6.969697 6.969696 l 3.466567,-3.46657 3.466566,-3.46656 -11.769597,0.33675 -11.769596,0.33675 3.751911,-1.11101 3.751911,-1.111 1.975434,-1.63947 1.975435,-1.639461 -0.685499,-1.786381 -0.685498,-1.786382 h 1.291486 1.291487 v 1.733334 1.733333 l -1.430955,1.430957 -1.430954,1.43095 3.419726,0.8583 3.419727,0.8583 5.011228,-2.14499 5.011228,-2.144991 1.778717,-0.305558 1.77871,-0.305557 6.62031,-5.7026 6.62032,-5.702602 3.29558,-5.220538 3.29558,-5.220541 0.79035,-5.766193 0.79034,-5.766193 -3.66476,-2.882706 -3.66477,-2.882705 h -1.77834 -1.77834 l 0.77398,2.01698 0.77399,2.01698 -1.64576,1.98302 -1.64576,1.98302 h -3.25773 -3.25773 l -2.57901,-1.380245 -2.57901,-1.380246 V 63.448978 61.4172 l -1.666667,0.959123 -1.666666,0.959124 1.11111,-1.213768 1.111112,-1.213767 0.888891,-0.05765 0.88889,-0.05765 5.01354,-2.644923 5.01354,-2.644922 -4.01354,-1.514944 -4.01354,-1.514943 v 2.425731 2.42573 l -6.66667,0.916902 -6.666667,0.916901 v 1.394559 1.39456 l 2.231156,1.63146 2.231155,1.631461 -3.400896,2.228352 -3.400896,2.228354 -3.98503,1.14289 -3.985029,1.142892 -1.64634,-1.017496 -1.646342,-1.017494 5.954411,-0.892919 5.954411,-0.892919 2.513367,-1.902896 2.513366,-1.902896 -2,-0.07205 -2,-0.07205 -3.333333,-2.654563 -3.333333,-2.654564 2.333333,0.826863 2.333333,0.826864 V 59.22234 57.918129 l 6.463404,-0.8574 6.46341,-0.857401 0.89337,-0.893375 0.89337,-0.893373 -4.284997,-4.421 -4.285002,-4.420999 h 0.792125 0.792124 l 5.80276,3.317273 5.80277,3.317272 1.33333,0.0095 1.33334,0.0095 -4,-3.27876 -4,-3.278761 1.22009,-0.04795 1.22009,-0.04801 8.77991,8.016716 8.77991,8.016715 3,2.602306 3,2.602307 v -0.706677 -0.706677 l -1.49995,-2.912345 -1.49995,-2.912345 -2.83339,-3.215 -2.83338,-3.215001 1.63911,0.943326 1.63911,0.943327 2.92744,-1.566716 2.92743,-1.566716 -6.2518,-2.373139 -6.25179,-2.373139 -4.92058,-4.320321 -4.92057,-4.32032 -7.252207,-3.320169 -7.252207,-3.320171 -5.729286,-0.645773 -5.729285,-0.645774 -3.676476,0.922736 -3.676476,0.922738 1.597132,0.987082 1.597133,0.987082 -6.702413,0.101106 -6.702414,0.101107 -5.630925,3.653695 -5.630927,3.653704 -3.785701,3.499834 -3.785703,3.499835 -1.880964,3.600454 -1.880966,3.600453 v 0.584732 0.584732 l 2.333334,-0.185185 2.333333,-0.185186 -0.199036,4 -0.199035,4 -0.134298,3.000001 -0.134298,3 h -2.402537 -2.402536 l 0.89432,8.333333 0.894321,8.333334 1.5039,5.333333 1.503899,5.333333 7.414564,8.666668 7.414564,8.66667 -0.560913,3.01166 -0.560915,3.01166 1.959964,-1.62663 1.959963,-1.62662 z m 11.20659,-17.658743 -4.666667,-2.899075 4.325116,-0.925861 4.325115,-0.925861 1.993537,-1.65449 1.993538,-1.654489 -0.730675,-1.182257 -0.730676,-1.182258 h -2.048816 -2.048817 l -4.113246,-2.928889 -4.113246,-2.92889 0.986108,1.595556 0.986108,1.595556 h -1.150467 -1.150467 l -4.060144,-4.333333 -4.060143,-4.333333 -4.868078,-6.52507 -4.86808,-6.525071 0.05338,-2.141596 0.05338,-2.141597 2.099755,4 2.099753,4 4.846863,5.112979 4.846863,5.11298 4.946883,2.553687 4.946882,2.553688 h 3.474106 3.474106 l 2.912345,-1.406888 2.912345,-1.406888 -2.588173,2.073554 -2.588173,2.073555 h -3.157184 -3.157182 l 0.824045,1.333333 0.824045,1.333334 h 2.643728 2.64373 l 2.862331,-2.666667 2.86233,-2.666667 h 2.1474 2.1474 l 1.721847,4.761683 1.721847,4.761683 -2.438514,2.694527 -2.438513,2.694526 -4.492691,-0.729062 -4.492689,-0.729063 0.625645,3.272853 0.625646,3.272854 -2.148438,-0.005 -2.148437,-0.005 z m 4,-1.632797 v -1.875175 l -2.77938,0.726824 -2.779379,0.726824 1.779379,1.127933 1.77938,1.127932 1,0.02042 1,0.02042 z M 89.860583,87.987484 V 86.68569 l -1.583333,0.527779 -1.583334,0.527777 -0.52808,1.58424 -0.52808,1.58424 2.111414,-0.810225 2.111413,-0.810225 z m -4.864371,-12.759679 0.880986,-1.425466 -1.674974,-0.675282 -1.674974,-0.675284 2.333333,-0.105264 2.333333,-0.105263 v 1.254644 1.254644 l -1.539344,0.951368 -1.539345,0.951367 z m -14.468963,-6.986559 -0.824045,-1.333333 1.078689,0.02042 1.07869,0.02042 2,1.292499 2,1.292499 -2.254644,0.02042 -2.254644,0.02042 z m -25.067321,-15.120912 -0.685959,-1.787579 1.189556,-1.879088 1.189556,-1.879088 0.02042,3.666667 0.02042,3.666666 h -0.524015 -0.524015 z m 39.733988,-12.247203 -5.333333,-3.28489 1.333333,-0.0019 1.333334,-0.0019 4.333333,2.642085 4.333333,2.642084 v 0.686266 0.686302 l -0.333333,-0.04161 -0.333333,-0.04161 z m 32.666664,74.780139 v -0.58798 l -1.53934,-0.95137 -1.53935,-0.95136 0.95137,1.53934 0.95137,1.53935 h 0.58798 0.58797 z m -16.44444,-8.02004 v -1.94135 l -1.11111,0.68671 -1.111113,0.6867 v 1.25465 1.25464 h 1.111113 1.11111 z m 5.73537,-0.39198 0.0424,2.33333 h 1.25464 1.25464 l 0.73068,-1.18226 0.73068,-1.18225 -1.81633,-1.50742 -1.81632,-1.50741 -2.169,0.83232 -2.16899,0.83232 v 2.11219 2.11219 l 1.95759,-2.58817 1.9576,-2.58818 0.0424,2.33334 z m 18.67254,-6.21344 -1.47632,-1.45323 -1.81866,2.46293 -1.81866,2.46293 0.79653,2.07574 0.79654,2.07574 2.49844,-3.08544 2.49845,-3.08545 z m -25.963467,1.8801 0.824047,-1.33333 h -0.66667 -0.666665 l -0.824045,1.33333 -0.824045,1.33334 h 0.666666 0.666667 z m 9.999997,-1.33333 -1.42715,-2.666667 -2.28643,0.02965 -2.28642,0.02965 3.33334,2.607367 3.33333,2.60737 0.38025,0.0297 0.38024,0.0296 z m 45.09746,-0.42653 0.46141,-2.395906 -0.87467,-2.255448 -0.87465,-2.25545 -1.90477,2.588174 -1.90478,2.588172 v 2.509598 2.50959 l 2.31803,-0.44641 2.31801,-0.44641 z m -27.28195,-13.57347 -0.76748,-2 h -1.09794 -1.09795 l -0.52481,-3 -0.52482,-3.000001 -1.1236,2.541011 -1.1236,2.541011 3.03673,2.458989 3.03672,2.45899 h 0.47711 0.47711 z m 0.85116,-9.254645 v -0.587977 l -1.53934,-0.951368 -1.53935,-0.951367 0.95137,1.539346 0.95137,1.539344 h 0.58797 0.58798 z M 41.860582,63.574579 v -4.666667 h -1 -1 v 4.666667 4.666667 h 1 1 z m 71.333338,2 0.82404,-1.333333 h -2.07869 -2.07869 v 1.333333 1.333334 h 1.25465 1.25464 z M 34.749471,60.68569 33.860582,59.796802 v 1.777777 1.777777 l 0.888889,-0.888888 0.888888,-0.888889 z M 18.186916,58.241246 17.54971,54.907912 h -3.410316 -3.410317 l 3.131505,3.333334 3.131504,3.333333 h 0.916018 0.916019 z m 69.89589,-32.222224 -0.88889,-0.888888 v 1.777778 1.777777 l 0.88889,-0.888888 0.888888,-0.888889 z M 92.52725,11.935333 v -1.353941 l -2,1.659853 -2,1.659852 v 0.461561 0.46156 l 2,-0.767472 2,-0.767471 z"
         id="path36495" />
      <path
         style="fill:#8b8b8b;stroke-width:1.33333"
         d="m 110.52725,138.20781 -1.33333,-0.48959 -5.52045,-1.41717 -5.520451,-1.41718 -2.146217,-4.52281 -2.146219,-4.52282 v -3.60782 -3.60781 l -2.109049,0.80932 -2.109051,0.80932 h -1.068775 -1.068774 l -0.745934,2.85245 -0.745933,2.85245 -5.66112,-0.75931 -5.66112,-0.75932 -3.850756,3.2402 -3.850756,3.24019 h -4.179932 -4.179934 l -7.190493,-7.66666 -7.190494,-7.66667 -3.025312,-4 -3.025311,-4 -3.087854,-9.333334 -3.087854,-9.333333 -0.08077,-9.386255 -0.08078,-9.386255 -3.413441,0.500422 -3.413441,0.500421 -8.253226,-6.896231 -8.2532259,-6.896231 v -1.762296 -1.762297 l 10.3333339,-1.875863 10.333333,-1.875864 3.765699,2.744187 3.765699,2.744185 1.419134,-2.657294 1.419134,-2.657296 6.902964,-6.789609 6.902963,-6.789609 9.245537,-3.521108 9.245538,-3.521108 4.303046,-0.849892 4.303047,-0.849894 0.853832,-4.83939 0.853832,-4.839391 4.780386,-5 4.780385,-5.0000003 h 1.53946 1.539461 l 0.860075,8.2287473 0.860075,8.228748 -1.980175,3.022128 -1.980175,3.022128 2.730924,0.866763 2.730926,0.866761 8.427659,5.769797 8.42765,5.769798 4.08525,2.112565 4.08525,2.112566 h 2.73288 2.73288 v 2.503406 2.503408 l -1.94993,1.618302 -1.94994,1.6183 2.86459,3.874557 2.86458,3.874557 0.56663,7.833609 0.56663,7.833608 -1.48128,0.915482 -1.48128,0.915483 v 1.654543 1.654541 l 7.74693,1.600103 7.74692,1.600101 3.91975,0.02041 3.91973,0.02041 1.99748,1.262725 1.99748,1.262726 0.20886,7.362746 0.20886,7.362747 3.98147,3.35018 3.98145,3.35018 0.84447,3.36462 0.84447,3.36462 -1.40408,2.62357 -1.4041,2.62356 -3.14981,0.79055 -3.1498,0.79056 -0.78132,3.9066 -0.78132,3.90659 -3.45521,1.57431 -3.45523,1.57429 -9.55857,-1.6391 -9.55857,-1.63911 -1.28326,-1.28326 -1.28327,-1.28327 h -1.06666 -1.06667 v 1.79335 1.79335 l -2.43832,2.20665 -2.43832,2.20665 -3.89501,-0.10533 -3.89502,-0.1052 -1.33333,-0.48959 z m 8.75432,-2.01347 2.57901,-1.38025 v -3.28642 -3.28642 h -1.82018 -1.82019 l -3.51315,2.76344 -3.51314,2.76344 v 1.1388 1.13878 l 2.33333,0.60976 2.33333,0.60978 0.42099,0.15466 0.42099,0.15467 z m -0.86741,-10.17041 4.11309,-1.90338 -11.606,0.57569 -11.606,0.57568 -0.67442,-1.51534 -0.67442,-1.51533 0.798097,4 0.798099,4 0.547964,0.97888 0.54796,0.97889 4.26769,1.10721 4.2677,1.1072 2.55358,-3.24306 2.55358,-3.24307 z m -53.499165,1.38513 0.832188,-0.83219 -2.855375,-2.31214 -2.855375,-2.31215 -2.638025,0.68986 -2.638026,0.68986 3.031146,2.45448 3.031145,2.45447 h 1.630066 1.630066 z m 65.770275,-1.83448 h 3.26914 l -1.41989,-2.65308 -1.41988,-2.65308 2.15892,-3.29493 2.15892,-3.29493 2.21405,-0.71522 2.21405,-0.71523 2.27132,-4.00343 2.27132,-4.00343 h 2.02016 2.02018 l -0.65115,-1.69688 -0.65116,-1.69687 -5.31615,-2.303128 -5.31614,-2.303126 h -0.75276 -0.75276 l -2,-2 -2,-2 h -2.06802 -2.06802 l 1.53062,1.84429 1.53063,1.844289 -2.03404,0.780531 -2.03403,0.78053 V 96.1994 94.907913 h -1.36407 -1.36407 l 2.212,3.375941 2.21201,3.375946 2.25705,-2.042612 2.25706,-2.042608 h 0.97438 0.97438 l -5.328,6.33333 -5.32799,6.33334 -2.04895,3.967 -2.04895,3.96701 1.96424,1.09925 1.96425,1.09924 v 2.33375 2.33375 l 1.65,1.65 1.65,1.65 0.46111,-1.38334 0.46111,-1.38333 z m -57.635201,-3.46263 2.074254,-0.79597 -5.63187,-3.00884 -5.63187,-3.00884 -1.553844,2.79584 -1.553845,2.79585 1.553845,0.98854 1.553844,0.98855 3.557617,0.0204 3.557616,0.0204 z m -11.189486,-8.8232 v -2.65708 l 4.713061,4.13812 4.713061,4.13812 h 4.620272 4.620273 l -0.02519,-1 -0.02519,-1 -6.528781,-4 -6.528782,-4 0.349244,-0.35083 0.349246,-0.35084 4.828561,2.0175 4.828569,2.01751 h 5.094235 5.094236 l 5.230512,-2.66667 5.230513,-2.66667 h 0.342897 0.342897 l -0.666604,1.73715 -0.666605,1.73714 4.590812,-0.53595 4.59082,-0.53595 1.49788,2.79881 1.49788,2.7988 h 2.35309 2.35308 l 1.6,1.6 1.6,1.6 -0.0568,-1.26666 -0.0568,-1.26667 -4.9995,-5.68988 -4.9995,-5.68988 -3.12406,-0.60164 -3.12406,-0.60164 -0.66156,-0.66157 -0.66157,-0.66157 -2.824687,1.52753 -2.824689,1.52752 -9.742755,0.29437 -9.742755,0.29437 4.409422,-2.20991 4.409421,-2.20991 -0.185185,-2.325564 -0.185186,-2.32556 h 1.185186 1.185185 v 1.733334 1.733333 l -1.430955,1.430957 -1.430954,1.43095 3.419726,0.8583 3.419727,0.8583 5.011228,-2.14499 5.011228,-2.144991 1.778713,-0.305558 1.77871,-0.305557 6.62031,-5.7026 6.62032,-5.702602 3.29558,-5.220538 3.29558,-5.220541 0.79035,-5.766193 0.79034,-5.766193 -3.66476,-2.882706 -3.66477,-2.882705 h -1.77834 -1.77834 l 0.77398,2.01698 0.77399,2.01698 -1.64576,1.98302 -1.64576,1.98302 h -3.25773 -3.25773 l -2.57901,-1.380245 -2.57901,-1.380246 V 63.448978 61.4172 l -1.666663,0.959123 -1.666666,0.959124 1.11111,-1.213768 1.111112,-1.213767 0.888887,-0.05765 0.88889,-0.05765 5.01354,-2.644923 5.01354,-2.644922 -4.01354,-1.514944 -4.01354,-1.514943 v 2.425731 2.42573 l -6.666666,0.916902 -6.666667,0.916901 v 1.394559 1.39456 l 2.231156,1.63146 2.231155,1.631461 -3.400896,2.228352 -3.400896,2.228354 -3.98503,1.14289 -3.985029,1.142892 -1.64634,-1.017496 -1.646342,-1.017494 5.954411,-0.892919 5.954411,-0.892919 2.513367,-1.902896 2.513366,-1.902896 -2.333333,-0.04241 -2.333333,-0.0424 v -1.224284 -1.224283 l -0.739686,-1.927589 -0.739685,-1.92759 6.536423,-0.867088 6.536424,-0.867086 0.89337,-0.893375 0.89337,-0.893373 -4.284993,-4.421 -4.285002,-4.420999 h 0.792125 0.792124 l 5.802756,3.317273 5.80277,3.317272 1.33333,0.0095 1.33334,0.0095 -4,-3.27876 -4,-3.278761 1.38905,-0.04795 1.38906,-0.04801 5.94428,6.137981 5.94427,6.13798 5,3.212079 5,3.212079 v 7.316608 7.316607 h 1.33334 1.33333 v -5.399547 -5.399547 l -2.15596,-4.26712 -2.15597,-4.26712 -2.84403,-3.215 -2.84404,-3.215001 1.63911,0.943326 1.63911,0.943327 2.92744,-1.566716 2.92743,-1.566716 -6.2518,-2.373139 -6.25179,-2.373139 -4.92058,-4.320321 -4.92057,-4.32032 -7.252203,-3.320169 -7.252207,-3.320171 -5.729286,-0.645773 -5.729285,-0.645774 -3.676476,0.922736 -3.676476,0.922738 1.597132,0.987082 1.597133,0.987082 -6.702413,0.101106 -6.702414,0.101107 -5.630925,3.653695 -5.630927,3.653704 -3.785701,3.499834 -3.785703,3.499835 -1.880964,3.600454 -1.880966,3.600453 v 0.584732 0.584732 l 1.666667,-0.185185 1.666667,-0.185186 0.333333,1 0.333333,1 v 6 6.000001 h -2.850793 -2.850793 l 0.878918,8.578746 0.878919,8.578747 2.027084,5.754587 2.027084,5.754587 5.122402,5.33333 5.122401,5.33334 1.489056,2.91234 1.489056,2.91235 0.04436,3.08765 0.04436,3.08766 2.622306,-3.14772 2.622309,-3.14771 z m 9.333333,-18.623213 -4.666667,-2.899075 4.480811,-0.957704 4.480811,-0.957705 2.089245,-2.089244 2.089244,-2.089244 -2.570056,-0.812991 -2.570055,-0.812989 -2.48442,-1.341656 -2.484418,-1.341656 -2.698192,-0.519624 -2.698192,-0.519624 -2.550915,-2.308547 -2.550915,-2.308547 -4.757401,-6.732842 -4.757402,-6.732843 6.490928,6.189944 6.490927,6.189943 4.26712,2.14339 4.26712,2.14339 h 3.487203 3.487201 l 2.912345,-1.406888 2.912345,-1.406888 -2.588173,2.073554 -2.588173,2.073555 h -3.157184 -3.157182 l 0.824045,1.333333 0.824045,1.333334 h 2.643728 2.64373 l 2.862331,-2.666667 2.86233,-2.666667 h 2.1474 2.1474 l 1.721847,4.761683 1.721847,4.761683 -2.438514,2.694527 -2.438513,2.694526 -4.492691,-0.729062 -4.492689,-0.729063 0.625645,3.272853 0.625646,3.272854 -2.148438,-0.005 -2.148437,-0.005 z m 4,-1.632797 v -1.875175 l -2.77938,0.726824 -2.779379,0.726824 1.779379,1.127933 1.77938,1.127932 1,0.02042 1,0.02042 z m 13.968254,-4.283558 2.15873,-2.158729 -0.539321,-0.539321 -0.539321,-0.539322 -2.087746,0.801143 -2.087745,0.801144 -0.727912,1.896908 -0.727912,1.896908 h 1.196248 1.196249 z M 67.193916,79.653269 v -0.587978 l -1.539344,-0.951368 -1.539345,-0.951366 0.951366,1.539345 0.951368,1.539344 h 0.587978 0.587977 z m 17.802296,-4.425464 0.880986,-1.425466 -1.674974,-0.675282 -1.674974,-0.675284 2.333333,-0.105264 2.333333,-0.105263 v 1.254644 1.254644 l -1.539344,0.951368 -1.539345,0.951367 z m -14.468963,-6.986559 -0.824045,-1.333333 1.078689,0.02042 1.07869,0.02042 2,1.292499 2,1.292499 -2.254644,0.02042 -2.254644,0.02042 z m 14.666667,-27.368115 -5.333333,-3.28489 1.333333,-0.0019 1.333334,-0.0019 4.333333,2.642085 4.333333,2.642084 v 0.686266 0.686302 l -0.333333,-0.04161 -0.333333,-0.04161 z m -2,79.368119 v -1.33334 h -0.587977 -0.587977 l -0.824046,1.33334 -0.824045,1.33333 h 1.412023 1.412022 z m -28.533334,-4.8 -0.862769,-2.24834 -0.666667,0.66666 -0.666666,0.66667 0.862769,2.24834 0.862769,2.24834 0.666667,-0.66667 0.666667,-0.66666 z m 71.163468,-14.41344 -1.47632,-1.45323 -1.81866,2.46293 -1.81866,2.46293 0.79653,2.07574 0.79654,2.07574 2.49844,-3.08544 2.49845,-3.08545 z m -15.96347,0.54677 -1.42715,-2.666667 -2.28643,0.02965 -2.28642,0.02965 3.33334,2.607367 3.33333,2.60737 0.38025,0.0297 0.38024,0.0296 z m 45.09746,-0.42653 0.46141,-2.395906 -0.87467,-2.255448 -0.87465,-2.25545 -1.90477,2.588174 -1.90478,2.588172 v 2.509598 2.50959 l 2.31803,-0.44641 2.31801,-0.44641 z m -5.10104,-5.23347 2.42385,-2.993335 -0.62216,-1.006665 -0.62215,-1.006667 h -4.49021 -4.49021 l -0.47963,2.333333 -0.47964,2.333334 2.04853,1.624262 2.04854,1.624262 1.11961,0.0424 1.1196,0.0424 2.42387,-2.993334 z m -21.66308,-8.31818 -3.66667,-3.227244 v -2.142644 -2.142645 l -1.33333,0.824046 -1.33334,0.824045 v 1.940908 1.94091 l 4.33334,2.642084 4.33333,2.642085 0.66667,-0.03715 0.66666,-0.03715 z M 41.860582,63.574579 v -4.666667 h -1 -1 v 4.666667 4.666667 h 1 1 z m 71.555138,1.333333 0.44277,-1.333333 -3.66562,-0.164657 -3.66562,-0.164659 1.67497,0.611872 1.67498,0.611871 -0.83288,1.347629 -0.83288,1.347628 2.38075,-0.461508 2.38075,-0.461509 z M 35.193915,61.574579 v -1.333333 h -2 -2 v 1.333333 1.333333 h 2 2 z M 18.186916,58.241246 17.54971,54.907912 h -3.410316 -3.410317 l 3.131505,3.333334 3.131504,3.333333 h 0.916018 0.916019 z m 70.440334,-31.700001 -0.1,-0.966667 -0.966667,-0.1 -0.966667,-0.1 -0.533333,1.6 -0.533333,1.6 1.6,-0.533333 1.6,-0.533333 z m 3.9,-14.605912 v -1.353941 l -2,1.659853 -2,1.659852 v 0.461561 0.46156 l 2,-0.767472 2,-0.767471 z"
         id="path36493" />
      <path
         style="fill:#6c6c6c;stroke-width:1.33333"
         d="m 110.52725,138.20781 -1.33333,-0.48959 -5.52045,-1.41717 -5.520451,-1.41718 -2.146217,-4.52281 -2.146219,-4.52282 v -3.60782 -3.60781 l -2.109049,0.80932 -2.109051,0.80932 h -1.068775 -1.068774 l -0.745934,2.85245 -0.745933,2.85245 -5.66112,-0.75931 -5.66112,-0.75932 -3.850756,3.2402 -3.850756,3.24019 h -4.179932 -4.179934 l -7.190493,-7.66666 -7.190494,-7.66667 -3.025312,-4 -3.025311,-4 -3.087854,-9.333334 -3.087854,-9.333333 -0.08077,-9.386255 -0.08078,-9.386255 -3.413441,0.500422 -3.413441,0.500421 -8.253226,-6.896231 -8.2532259,-6.896231 v -1.762296 -1.762297 l 10.3333339,-1.875863 10.333333,-1.875864 3.765699,2.744187 3.765699,2.744185 1.419134,-2.657294 1.419134,-2.657296 6.902964,-6.789609 6.902963,-6.789609 9.245537,-3.521108 9.245538,-3.521108 4.303046,-0.849892 4.303047,-0.849894 0.853832,-4.83939 0.853832,-4.839391 4.780386,-5 4.780385,-5.0000003 h 1.53946 1.539461 l 0.860075,8.2287473 0.860075,8.228748 -1.980175,3.022128 -1.980175,3.022128 2.730924,0.866763 2.730926,0.866761 8.427659,5.769797 8.42765,5.769798 4.08525,2.112565 4.08525,2.112566 h 2.73288 2.73288 v 2.503406 2.503408 l -1.94993,1.618302 -1.94994,1.6183 2.86459,3.874557 2.86458,3.874557 0.56663,7.833609 0.56663,7.833608 -1.48128,0.915482 -1.48128,0.915483 v 1.654543 1.654541 l 7.74693,1.600103 7.74692,1.600101 3.91975,0.02041 3.91973,0.02041 1.99748,1.262725 1.99748,1.262726 0.20886,7.362746 0.20886,7.362747 3.98147,3.35018 3.98145,3.35018 0.84447,3.36462 0.84447,3.36462 -1.40408,2.62357 -1.4041,2.62356 -3.14981,0.79055 -3.1498,0.79056 -0.78132,3.9066 -0.78132,3.90659 -3.45521,1.57431 -3.45523,1.57429 -9.55857,-1.6391 -9.55857,-1.63911 -1.28326,-1.28326 -1.28327,-1.28327 h -1.06666 -1.06667 v 1.79335 1.79335 l -2.43832,2.20665 -2.43832,2.20665 -3.89501,-0.10533 -3.89502,-0.1052 -1.33333,-0.48959 z m 8.75432,-2.01347 2.57901,-1.38025 v -3.28642 -3.28642 h -2.2474 -2.24739 l -3.08594,2.89908 -3.08593,2.89909 v 1.00315 1.00314 l 2.33333,0.60976 2.33333,0.60978 0.42099,0.15466 0.42099,0.15467 z m -6.35432,-5.95309 4.66667,-4.66667 h 3.2 3.2 l 1.6,1.6 1.6,1.6 v -1.6 -1.6 h 3.38024 3.38025 l -1.41989,-2.65308 -1.41988,-2.65308 2.15892,-3.29493 2.15892,-3.29493 2.34504,-0.74428 2.34505,-0.74429 1.52484,-3.34666 1.52484,-3.34666 2.87108,-1.06209 2.87109,-1.06208 -3.04044,-2.83259 -3.04042,-2.832598 -4.07763,-0.895595 -4.07761,-0.895596 -1.83744,-1.837437 -1.83744,-1.837438 h -2.06802 -2.06802 l 1.53062,1.84429 1.53063,1.844289 -2.03404,0.780531 -2.03403,0.78053 V 96.1994 94.907913 h -1.36407 -1.36407 l 2.212,3.375941 2.21201,3.375946 2.25705,-2.042612 2.25706,-2.042608 h 0.91035 0.91035 l -5.8964,7.2392 -5.89641,7.2392 -1.4485,2.42747 -1.4485,2.42746 -6.4494,-7.2153 -6.44939,-7.2153 -1.76038,1.08798 -1.76039,1.08798 0.97945,-1.58478 0.97945,-1.58478 -3.10677,0.65498 -3.10677,0.65499 -3.333334,0.7726 -3.333333,0.77259 6,-2.58045 5.999997,-2.58046 2,1.66217 2,1.66217 1.7768,1.01623 1.7768,1.01622 -2.04284,-3.95041 -2.04284,-3.95042 4.74475,-4.529671 4.74476,-4.529669 3.09492,-4.826124 3.09491,-4.826126 0.88635,-4.724623 0.88634,-4.724624 -0.81893,-2.580242 -0.81894,-2.580243 -3.37044,-1.535676 -3.37044,-1.535676 h -1.14577 -1.14577 l 0.6575,3 0.6575,3 -1.11566,-1.333334 -1.11566,-1.333333 -3.33334,-0.337368 -3.33333,-0.337368 1.33333,1.004035 1.33334,1.004034 0.33333,1.666667 0.33333,1.666667 h -2.41182 -2.41183 l -2.32741,-1.701841 -2.32741,-1.701843 0.8664,-2.257799 0.8664,-2.257799 5.18319,-2.286818 5.18319,-2.286818 -4.97702,-1.733466 -4.97702,-1.733466 -0.18519,-0.02008 -0.18518,-0.02007 0.18518,2.189828 0.18519,2.189828 -2,0.578346 -2,0.578347 1.98459,-1.376685 1.98459,-1.376684 -4.651257,-4.929446 -4.651257,-4.929444 7.495634,4.204622 7.49564,4.204621 h 1.04435 1.04434 l -2.53998,-3 -2.53998,-3 8,7.038513 8,7.038514 2.43777,2.065921 2.43776,2.06592 -0.2908,4.895567 -0.29081,4.895565 0.18637,2.333334 0.18637,2.333333 h 1.18879 1.18879 l 0.84915,-3.383288 0.84916,-3.383289 -1.40635,-5.222752 -1.40634,-5.222754 -3.25376,-3.866881 -3.25377,-3.86688 3.62217,-1.689734 3.62216,-1.689733 -4.81394,-1.703132 -4.81394,-1.703132 -8.2197,-6.051003 -8.21971,-6.051001 -7.349702,-2.749878 -7.349705,-2.749877 h -4.633528 -4.633528 l -9.329899,2.585447 -9.3299,2.585448 -4.31989,2.959446 -4.319889,2.959446 -4.447092,4.121773 -4.447092,4.121774 -1.920482,3.666666 -1.920481,3.666667 h 2.700907 2.700906 v 6.666667 6.666667 h -1.420988 -1.420989 l -2.474995,-1.324578 -2.474993,-1.324576 -0.809327,3.684836 -0.809325,3.684838 1.352799,9.538468 1.352797,9.538467 2.702197,7.101272 2.702198,7.10127 9.0931,9.66667 9.0931,9.66667 h 2.811858 2.811857 l 0.703547,-1.13837 0.703546,-1.13836 -3.624857,-1.75322 -3.624858,-1.75322 -2.36127,0.31346 -2.361272,0.31346 3.361272,-3.36127 3.361271,-3.36127 0.0424,-3.06061 0.0424,-3.0606 1.624261,2.06118 1.624263,2.06119 3.296675,2.27215 3.296674,2.27214 h 4.369992 4.369993 l -0.0096,-1 -0.0096,-1 -5.657071,-3.79316 -5.657071,-3.79317 2.666667,1.03828 2.666666,1.03829 7.012811,0.54569 7.012812,0.54569 4.73007,-2.79081 4.730068,-2.79081 h 0.753713 0.753712 l -1.693384,2.04041 -1.693385,2.0404 5.492301,-0.69007 5.49231,-0.69008 1.41806,2.64967 1.41807,2.64967 h 2.16056 2.16057 l 4.57197,3.48722 4.57198,3.48721 -1.11279,1.01514 -1.11278,1.01513 -10.93246,0.70028 -10.932459,0.70027 -0.742183,-1.53596 -0.742184,-1.53595 0.781835,3.99254 0.781835,3.99254 1.322966,1.59408 1.32297,1.59408 2.90317,0.56513 2.90317,0.56515 0.2,0.18157 0.2,0.18157 z m -35.955557,-25.55556 0.88889,-0.88889 0.888889,0.88889 0.888888,0.88889 h -1.777777 -1.777778 z m 4.222223,-1.77778 0.824046,-1.33333 h 0.666666 0.666667 l -0.824045,1.33333 -0.824046,1.33334 h -0.666666 -0.666667 z m 3.777778,0.44445 0.888889,-0.88889 0.888889,0.88889 0.888888,0.88889 h -1.777777 -1.777777 z m -11.951047,-7.698302 -4.17327,-1.816144 -0.90542,-1.465001 -0.90542,-1.465 h 0.840595 0.840593 l 2,2 2,2 h 1.238096 1.238095 v -2.503407 -2.503408 l 2,-1.659852 2,-1.659852 V 85.577986 84.57458 l -3.666667,-0.821323 -3.666666,-0.821324 -4,-3.46378 -4,-3.463782 2.912345,1.451771 2.912344,1.451771 h 4.175311 4.17531 l 2.912345,-1.406888 2.912345,-1.406888 -2.588173,2.073554 -2.588173,2.073555 -4.078494,0.02042 -4.078494,0.02042 2,1.292498 2,1.292499 2.389084,0.02041 2.389086,0.02041 2.862331,-2.666667 2.86233,-2.666667 h 2.259743 2.259743 l 0.670904,2.333334 0.670904,2.333333 0.938097,2.27472 0.938099,2.274722 -3.970647,-1.138767 -3.970647,-1.138767 0.18382,3.196438 0.18382,3.196446 1.4,9.42e-4 1.4,9.41e-4 1.86903,-1.666667 1.869029,-1.666666 -1.873845,2.463734 -1.873846,2.463734 -4.539058,-0.736587 -4.539059,-0.736588 0.625645,3.272853 0.625646,3.272854 -1.481771,-0.05219 -1.481771,-0.05219 z m 10.617713,1.031632 0.88889,-0.888888 0.888889,0.888888 0.888888,0.88889 H 84.52725 82.749472 Z m -12,-5.333333 0.888889,-0.888888 0.88889,0.888888 0.888888,0.888889 H 72.527249 70.749472 Z M 84.971694,74.182594 v -1.941348 h 1.111112 1.11111 v 1.254644 1.254644 l -1.11111,0.686704 -1.111112,0.686705 z m -3.271448,-4.714107 5.839664,-1.147252 3.324501,-2.178296 3.324501,-2.178297 -0.993601,1.60768 -0.993601,1.607681 -4.461072,1.863955 -4.461072,1.863955 -3.709491,-0.146088 -3.709492,-0.146087 z m -8.728553,-0.782797 0.88889,-0.888888 0.888889,0.888888 0.888888,0.888889 h -1.777777 -1.777778 z m 0.07837,53.42626 2.074253,-0.79597 -5.631867,-3.00884 -5.63187,-3.00884 -1.553844,2.79584 -1.553845,2.79585 1.553845,0.98854 1.553844,0.98855 3.557617,0.0204 3.557616,0.0204 2.074253,-0.79596 z m 10.143849,-1.8707 v -1.33334 h -1.254644 -1.254644 l -0.824045,1.33334 -0.824045,1.33333 h 2.078689 2.078689 z m 42.630138,-19.21344 -1.47632,-1.45323 -1.81866,2.46293 -1.81866,2.46293 0.79653,2.07574 0.79654,2.07574 2.49844,-3.08544 2.49845,-3.08545 z m 29.13399,0.12024 0.46141,-2.395912 -0.79521,-2.07228 -0.79522,-2.072281 -1.98421,1.646759 -1.98423,1.646757 v 3.267837 3.26784 l 2.31803,-0.44641 2.31801,-0.44641 z m -4.53767,-5.597489 2.19983,-3.357347 -1.71315,-0.527274 -1.71313,-0.527274 -4.09722,-0.701489 -4.09721,-0.701488 0.0972,2.919443 0.0972,2.919448 2,1.624262 2,1.624262 1.51332,0.0424 1.51332,0.0424 2.19981,-3.357347 z m -20.06615,-6.309315 -0.99709,-1.666666 -2.41494,-1.742272 -2.41494,-1.742272 -0.0424,-2.257729 -0.0424,-2.257728 -1.96259,2.595005 -1.96259,2.595005 1.00499,0.988356 1.005,0.988356 4,2.075092 4,2.075092 0.41202,0.0083 0.41203,0.0082 z M 41.860582,63.574579 v -4.666667 h -1.208507 -1.208508 l 0.699207,2.673768 0.699205,2.67377 -1.653957,1.992897 -1.653959,1.992899 h 2.163259 2.16326 z M 35.193915,61.717231 V 60.52655 l -2,-0.767472 -2,-0.767472 v 1.958153 1.958153 h 2 2 z M 18.186916,58.241246 17.54971,54.907912 h -3.410316 -3.410317 l 3.131505,3.333334 3.131504,3.333333 h 0.916018 0.916019 z M 89.555027,26.657912 89.02725,25.074578 87.443916,24.546801 85.860583,24.019022 v 2.111112 2.111111 h 2.111111 2.111112 z M 92.52725,11.935333 v -1.353941 l -2,1.659853 -2,1.659852 v 0.461561 0.46156 l 2,-0.767472 2,-0.767471 z"
         id="path36491" />
      <path
         style="fill:#5b5b5b;stroke-width:1.33333"
         d="m 110.52725,138.20781 -1.33333,-0.48959 -5.52045,-1.41717 -5.520451,-1.41718 -2.146217,-4.52281 -2.146219,-4.52282 v -3.60782 -3.60781 l -2.109049,0.80932 -2.109051,0.80932 h -1.068775 -1.068774 l -0.745934,2.85245 -0.745933,2.85245 -5.66112,-0.75931 -5.66112,-0.75932 -3.850756,3.2402 -3.850756,3.24019 h -4.179932 -4.179934 l -7.190493,-7.66666 -7.190494,-7.66667 -3.025312,-4 -3.025311,-4 -3.087854,-9.333334 -3.087854,-9.333333 -0.08077,-9.386255 -0.08078,-9.386255 -3.413441,0.500422 -3.413441,0.500421 -8.253226,-6.896231 -8.2532259,-6.896231 v -1.762296 -1.762297 l 10.3333339,-1.875863 10.333333,-1.875864 3.765699,2.744187 3.765699,2.744185 1.419134,-2.657294 1.419134,-2.657296 6.902964,-6.789609 6.902963,-6.789609 9.245537,-3.521108 9.245538,-3.521108 4.303046,-0.849892 4.303047,-0.849894 0.853832,-4.83939 0.853832,-4.839391 4.780386,-5 4.780385,-5.0000003 h 1.53946 1.539461 l 0.860075,8.2287473 0.860075,8.228748 -1.980175,3.022128 -1.980175,3.022128 2.730924,0.866763 2.730926,0.866761 8.427659,5.769797 8.42765,5.769798 4.08525,2.112565 4.08525,2.112566 h 2.73288 2.73288 v 2.503406 2.503408 l -1.94993,1.618302 -1.94994,1.6183 2.86459,3.874557 2.86458,3.874557 0.56663,7.833609 0.56663,7.833608 -1.48128,0.915482 -1.48128,0.915483 v 1.654543 1.654541 l 7.74693,1.600103 7.74692,1.600101 3.91975,0.02041 3.91973,0.02041 1.99748,1.262725 1.99748,1.262726 0.20886,7.362746 0.20886,7.362747 3.98147,3.35018 3.98145,3.35018 0.84447,3.36462 0.84447,3.36462 -1.40408,2.62357 -1.4041,2.62356 -3.14981,0.79055 -3.1498,0.79056 -0.78132,3.9066 -0.78132,3.90659 -3.45521,1.57431 -3.45523,1.57429 -9.55857,-1.6391 -9.55857,-1.63911 -1.28326,-1.28326 -1.28327,-1.28327 h -1.06666 -1.06667 v 1.79335 1.79335 l -2.43832,2.20665 -2.43832,2.20665 -3.89501,-0.10533 -3.89502,-0.1052 -1.33333,-0.48959 z m 8.75432,-2.01347 2.57901,-1.38025 v -3.28642 -3.28642 h -2.2474 -2.24739 l -3.08594,2.89908 -3.08593,2.89909 v 1.00315 1.00314 l 2.33333,0.60976 2.33333,0.60978 0.42099,0.15466 0.42099,0.15467 z m -7.99141,-4.43928 2.48004,-3.15285 4.19823,-1.73897 4.19824,-1.73896 2.51362,1.56978 2.51363,1.56978 v -1.34463 -1.34463 h 3.38024 3.38025 l -1.41989,-2.65308 -1.41988,-2.65308 2.15892,-3.29493 2.15892,-3.29493 2.21405,-0.71522 2.21405,-0.71523 2.27132,-4.00343 2.27132,-4.00343 h 2.02016 2.02018 l -0.74931,-1.95268 -0.74932,-1.95267 2.79116,-3.919822 2.79116,-3.91982 v -0.6573 -0.657298 l -9,-1.52371 -9,-1.52371 -4.26963,-1.362208 -4.26963,-1.36221 -0.86741,-2.732964 -0.86741,-2.732964 -2.02072,2.020728 -2.02073,2.020727 0.95075,1.538348 0.95075,1.538348 7.20702,3.412361 7.20701,3.41236 v 1.17724 1.17724 h -0.76191 -0.7619 l -2,-2 -2,-2 h -2.06802 -2.06802 l 1.53062,1.84429 1.53063,1.844289 -2.03404,0.780531 -2.03403,0.78053 V 96.1994 94.907913 h -1.36407 -1.36407 l 2.212,3.375941 2.21201,3.375946 2.25705,-2.042612 2.25706,-2.042608 h 0.91035 0.91035 l -5.8964,7.2392 -5.89641,7.2392 -1.44422,2.42747 -1.44422,2.42746 -4.05648,-4.66666 -4.05648,-4.66667 -2.92352,-3 -2.92353,-3 -3.36138,-0.0937 -3.36137,-0.0937 2.66667,-1.08034 2.66666,-1.080337 2,1.637917 2,1.63791 1.79062,1.02477 1.79062,1.02477 -1.98679,-3.79191 -1.98678,-3.791914 7.17058,-7.745076 7.17057,-7.745075 1.18024,-4.284976 1.18024,-4.284976 0.9899,3.666666 0.98989,3.666667 h 1.09894 1.09894 l 0.88316,-2.782585 0.88316,-2.782586 -0.88606,-4.884081 -0.88605,-4.884082 -3.82735,-4.822386 -3.82735,-4.822387 3.58676,-1.673601 3.58676,-1.673603 -4.81394,-1.703132 -4.81394,-1.703132 -8.2197,-6.051003 -8.21971,-6.051001 -7.349702,-2.749878 -7.349705,-2.749877 h -4.633528 -4.633528 l -9.329899,2.585447 -9.3299,2.585448 -4.31989,2.959446 -4.319889,2.959446 -4.447092,4.121773 -4.447092,4.121774 -1.920482,3.666666 -1.920481,3.666667 h 2.700907 2.700906 v 5.921311 5.921311 l -1.449509,0.895846 -1.449511,0.895846 -1.483822,-1.483823 -1.483824,-1.483824 h 2.266666 2.266667 v -4.666667 -4.666667 h -1.148437 -1.148438 l 0.606106,3.17064 0.606106,3.170641 -3.124334,2.196964 -3.124336,2.196964 0.229334,9.789468 0.229336,9.789468 2.001022,6.738169 2.001021,6.738174 1.625575,3.10475 1.625574,3.10476 4.810735,5.44545 4.810736,5.44544 3.54636,4.22123 3.54636,4.22122 h 4.120307 4.120307 v -0.85301 -0.85301 l -2.235865,-1.63491 -2.235864,-1.6349 10.235864,-0.95918 10.235865,-0.95918 v -1.88624 -1.88624 l -1,-0.0297 -1,-0.0296 -3.333333,-2.74229 -3.333334,-2.7423 3.333334,0.68336 3.333333,0.68335 6,-1.34757 6,-1.34756 6.662513,0.19011 6.662511,0.19011 1.07041,1.91271 1.07041,1.91271 h 2.4527 2.4527 l 3.14771,2.77351 3.14771,2.7735 -3.29667,-2.10683 -3.29668,-2.10684 h -2.894 -2.89401 l -0.79191,-2.06369 -0.79191,-2.06368 -5.01741,0.90723 -5.017407,0.90723 -0.267155,0.20139 -0.267153,0.20138 2.040256,8.94453 2.040256,8.94452 4.226903,1.22363 4.22689,1.22362 0.47478,0.12026 0.47477,0.12027 2.48003,-3.15285 z m -26.318466,-28.4027 0.888889,-0.88889 0.888889,0.88889 0.888888,0.88889 h -1.777777 -1.777777 z m 8,0 0.888889,-0.88889 0.888889,0.88889 0.888888,0.88889 H 93.860583 92.082806 Z M 72.860583,95.586756 68.527249,93.70331 v -1.492937 -1.492936 l 2.095239,2.095237 2.095237,2.095239 h 1.238096 1.238095 v -2.503407 -2.503408 l 2,-1.659852 2,-1.659852 V 85.41132 84.241246 h -2.592315 -2.592316 l -3.543756,-3.048211 -3.543756,-3.048212 5.321699,0.507507 5.3217,0.507505 3.147706,-1.532849 3.147705,-1.532849 -2.588173,2.073554 -2.588173,2.073555 -4.078494,0.02042 -4.078494,0.02042 2,1.292498 2,1.292499 2.389084,0.02041 2.389086,0.02041 2.862331,-2.666667 2.86233,-2.666667 h 2.259743 2.259743 l 0.670904,2.333334 0.670904,2.333333 0.966392,2.348455 0.966392,2.348453 -2.481787,-0.917865 -2.481788,-0.917857 -0.784361,-1.160368 -0.784362,-1.160368 -1.712232,2.063113 -1.71223,2.063112 h 1.371766 1.371767 l -0.707127,2.704057 -0.707126,2.704058 -2.685143,-0.852232 -2.685142,-0.852231 0.665533,3.481508 0.665532,3.481507 -1.481771,-0.05219 -1.481771,-0.05219 z m 10.777777,1.098934 0.88889,-0.888888 0.888889,0.888888 0.888888,0.88889 H 84.52725 82.749472 Z m -12,-5.333333 0.888889,-0.888888 0.88889,0.888888 0.888888,0.888889 h -1.777778 -1.777777 z m 15.555556,0.385483 v -0.503408 l 2.333334,-1.829926 2.333333,-1.829926 -1.829927,2.333333 -1.829925,2.333333 H 87.697323 87.193916 Z M 84.971694,74.182594 v -1.941348 h 1.111112 1.11111 v 1.254644 1.254644 l -1.11111,0.686704 -1.111112,0.686705 z m 39.535136,-4.941348 -0.0204,-3 -0.97959,-1.467062 -0.97958,-1.467061 -2.91235,-1.532939 -2.91234,-1.532938 h -1.29616 -1.29616 l 0.6575,3 0.6575,3 -1.29992,-1.837487 -1.29993,-1.837488 -1.4824,0.916177 -1.48241,0.916176 v -1.412022 -1.412023 h -1.19068 -1.19068 l -0.79405,2.069251 -0.79404,2.069251 1.31806,-0.814607 1.31806,-0.814607 v 2.07869 2.078689 h -1.74516 -1.74516 l -2.32741,-1.701841 -2.32741,-1.701843 0.8664,-2.257799 0.8664,-2.257799 5.18319,-2.286818 5.18319,-2.286818 -4.97702,-1.733466 -4.97702,-1.733466 -0.18519,-0.02008 -0.18518,-0.02007 0.18518,2.189828 0.18519,2.189828 -2,0.578346 -2,0.578347 1.98459,-1.376685 1.98459,-1.376684 -4.651257,-4.929446 -4.651257,-4.929444 7.495634,4.204622 7.49564,4.204621 h 1.00095 1.00096 l -1.8137,-2.333333 -1.81371,-2.333334 7.31711,6.360552 7.31712,6.360551 2.33333,1.972783 2.33333,1.972781 v 3.333334 3.333333 h -0.66666 -0.66667 l -0.0204,-3 z m -42.806584,0.227241 5.839664,-1.147252 3.324501,-2.178296 3.324501,-2.178297 -0.993601,1.60768 -0.993601,1.607681 -4.461072,1.863955 -4.461072,1.863955 -3.709491,-0.146088 -3.709492,-0.146087 z m -8.728553,-0.782797 0.88889,-0.888888 0.888889,0.888888 0.888888,0.888889 h -1.777777 -1.777778 z m 79.036187,62.98586 0.73025,-1.90303 -0.43877,-2.78782 -0.43878,-2.78782 -3.7235,4.69085 -3.72351,4.69085 h 3.43201 3.43203 z m 10.29993,-16.84974 -1.13619,-1.13619 -1.98885,1.30315 -1.98885,1.30315 2.66666,2.04148 2.66667,2.04149 0.45837,-2.20845 0.45838,-2.20845 z m -36.48376,-13.794 -1.47632,-1.45323 -1.81866,2.46293 -1.81866,2.46293 0.79653,2.07574 0.79654,2.07574 2.49844,-3.08544 2.49845,-3.08545 z m 29.13399,0.12024 0.46141,-2.395912 -0.79521,-2.07228 -0.79522,-2.072281 -1.98421,1.646759 -1.98423,1.646757 v 3.267837 3.26784 l 2.31803,-0.44641 2.31801,-0.44641 z M 35.193915,61.653268 v -1.254644 l -1.333333,-0.824045 -1.333333,-0.824045 -1.355083,0.837486 -1.355083,0.837488 0.767106,1.241202 0.767105,1.241202 h 1.921311 1.92131 z M 18.186916,58.241246 17.54971,54.907912 h -3.410316 -3.410317 l 3.131505,3.333334 3.131504,3.333333 h 0.916018 0.916019 z M 89.860583,26.241245 v -2 h -2 -2 v 2 2 h 2 2 z M 92.52725,11.935333 v -1.353941 l -2,1.659853 -2,1.659852 v 0.461561 0.46156 l 2,-0.767472 2,-0.767471 z"
         id="path36489" />
      <path
         style="fill:#4b4b4b;stroke-width:1.33333"
         d="m 106.52725,136.73903 -6.666667,-1.98316 -2.216772,-2.59441 -2.216773,-2.59441 -0.900424,-5.32957 -0.900426,-5.32957 -0.882802,0.0182 -0.882803,0.0182 -3,0.80396 -3,0.80397 v 1.84449 1.8445 h -6.140859 -6.140859 l -3.961441,3.33333 -3.961443,3.33333 h -1.963912 -1.963913 l -3.688155,-1.90721 -3.688155,-1.90722 -3.604145,-5.20079 -3.604147,-5.20078 -4.004639,-3.83669 -4.004638,-3.83669 -3.425894,-10.721974 -3.425894,-10.721976 0.05001,-9.066882 0.05001,-9.066881 -2.52766,0.802248 -2.527664,0.802248 -3.733304,-2.054395 -3.733305,-2.054396 -5.969495,-5.311476 -5.969495,-5.311478 1.302828,-1.302157 1.302828,-1.302157 9.677179,-1.597808 9.677179,-1.597807 2.664329,2.411184 2.66433,2.411185 -0.64262,0.64262 -0.64262,0.642619 -2.165086,-1.796861 -2.165085,-1.796862 -5.533803,0.32184 -5.533803,0.321839 -3.666666,0.724295 -3.666667,0.724296 v 1.003436 1.003436 l 7.500997,5.55729 7.500998,5.55729 h 1.089005 1.089006 l 0.409997,-5.666667 0.409997,-5.666667 3.011986,0.319738 3.011985,0.319737 4.83454,-6.729328 4.83454,-6.729327 5.882584,-4.491687 5.882584,-4.491688 11.604225,-3.663362 11.604224,-3.663363 0.979583,-1.43536 0.979582,-1.43536 0.02042,-3.56277 0.02042,-3.562769 5.573332,-4.770564 5.573331,-4.7705643 h 0.933081 0.93308 l 0.64874,8.3333333 0.648742,8.333334 -2.035869,2.341508 -2.035866,2.341508 0.547381,0.421205 0.547381,0.421204 6.333334,3.626827 6.333331,3.626825 v 0.555438 0.555438 l -6.999998,-3.523488 -7,-3.523488 -7.029143,-0.589012 -7.029143,-0.589012 -8.30419,2.318827 -8.304191,2.318828 -3.819146,1.961787 -3.819146,1.961785 -5.949891,5.484419 -5.949891,5.484417 -1.931869,3.735826 -1.931871,3.735825 h 2.700907 2.700906 l -0.224137,5.666667 -0.224137,5.666667 -0.523016,-5.000001 -0.523018,-5 h -1.10697 -1.106972 l -0.553966,4.745119 -0.553966,4.74512 2.074758,1.214336 2.074758,1.214336 -1.4,0.04054 -1.4,0.04055 -1.483824,-1.483824 -1.483823,-1.483823 -1.449511,0.895845 -1.449509,0.895847 0.01013,4.921311 0.01013,4.92131 1.404766,8.658639 1.404767,8.658639 2.597693,5.872513 2.597694,5.87252 4.987468,5.68843 4.987345,5.68842 3.513103,4.11376 3.513101,4.11375 h 4.153566 4.153564 v -0.85301 -0.85301 l -2.235865,-1.63491 -2.235864,-1.6349 10.235864,-0.95918 10.235865,-0.95918 v -1.88624 -1.88624 l -1,-0.0297 -1,-0.0296 -3.333333,-2.74229 -3.333334,-2.7423 3.333334,0.68336 3.333333,0.68335 6,-1.34757 6,-1.34756 6.662513,0.19011 6.662509,0.19011 1.07041,1.91271 1.07041,1.91271 h 2.4527 2.4527 l 3.14771,2.77351 3.14771,2.7735 -3.29667,-2.10683 -3.29668,-2.10684 h -2.894 -2.89401 l -0.79191,-2.06369 -0.79191,-2.06368 -5.01741,0.90723 -5.017405,0.90723 -0.267155,0.20139 -0.267153,0.20138 2.03472,8.92026 2.03472,8.92025 4.751423,1.31193 4.75143,1.31194 2.43581,-3.09664 2.43582,-3.09664 4.19823,-1.73897 4.19824,-1.73896 2.7864,1.74014 2.78641,1.74014 0.505,-1.51499 0.50499,-1.51499 h 2.55556 2.55555 v -1.06667 -1.06666 l -1.52888,-1.52888 -1.52887,-1.52888 6.19554,-6.02138 6.19555,-6.02138 v -1.38308 -1.38307 h 2.82217 2.82217 l -0.75526,-2.88814 -0.75527,-2.888137 2.59976,-3.651023 2.59976,-3.651022 V 91.79482 91.093382 l -3,-0.577825 -3,-0.577825 4.21613,-0.181576 4.21614,-0.181576 0.89156,5.277102 0.89157,5.277108 -0.79132,2.49323 -0.79132,2.49323 4.68361,4.262 4.68363,4.262 v 3.76101 3.76102 l -2.43832,2.20665 -2.43832,2.20665 h -1.41713 -1.41714 l -0.83238,3.31647 -0.83238,3.31646 -3.37196,2.20939 -3.37196,2.2094 -9.63428,-2.11699 -9.63427,-2.11696 -2.30593,-0.88487 -2.30593,-0.88487 v 2.06705 2.06704 l -2.96334,2.07561 -2.96334,2.0756 -2.70333,-0.0929 -2.70332,-0.0929 z m 12.75432,-0.54469 2.57901,-1.38025 v -3.95309 -3.95309 h -0.79427 -0.79428 l -3.83058,2.26278 -3.83057,2.26278 -0.75364,1.96395 -0.75364,1.96396 1.71182,1.08619 1.71183,1.08617 1.08765,0.0204 1.08766,0.0204 2.57901,-1.38024 z m 32.72631,-4.52279 0.73025,-1.90303 -0.43877,-2.56185 -0.43878,-2.56184 -4.14493,4.46487 -4.14495,4.46488 h 3.85346 3.85345 z m -9.2584,-6.98586 -0.8889,-0.88889 -0.88889,0.88889 -0.88888,0.88889 h 1.77777 1.77778 z m 4.44444,-3.69909 v -0.58797 l -1.33334,-0.82405 -1.33333,-0.82405 v 1.41203 1.41202 h 1.33333 1.33334 z m 15.11389,-6.16479 -1.13619,-1.13619 -1.98885,1.30315 -1.98885,1.30315 2.66666,2.04148 2.66667,2.04149 0.45837,-2.20845 0.45838,-2.20845 z m -8.89167,-2.13612 -0.88889,-0.88889 -0.88889,0.88889 -0.88888,0.88889 h 1.77777 1.77777 z m 1.77778,-13.941037 v -3.83674 h -1.25774 -1.25772 l -2.0122,2.872808 -2.01218,2.872809 1.3629,2.54661 1.36291,2.54662 1.90701,-1.58268 1.90702,-1.58269 z M 33.499471,66.102357 l -0.805556,-0.805555 -1.75,0.700292 -1.75,0.700292 2.555556,0.105264 2.555555,0.105263 z m 3.027778,-4.385126 V 60.52655 l -2.120323,-0.813646 -2.120323,-0.813644 -1.23476,0.763124 -1.23476,0.763124 0.767106,1.241202 0.767105,1.241202 h 2.587977 2.587978 z M 89.860583,26.241245 v -2 h -2 -2 v 2 2 h 2 2 z m 4,-9.396164 V 9.4489165 l -5.376913,4.3210055 -5.376915,4.321007 0.710248,1.850875 0.710247,1.850874 v 0.636306 0.636306 l 1.322773,-0.817518 1.322773,-0.81752 2.343894,1.364952 2.343893,1.364952 1,0.04055 1,0.04054 z m 20.777357,95.062829 -3.4597,-4.33333 -2.96412,-3 -2.96412,-3 -2.69471,-0.15467 -2.694707,-0.15467 2.432537,-0.62887 2.43254,-0.62886 2.57564,2.33091 2.57563,2.33092 0.79449,-0.79449 0.79449,-0.79449 -1.9944,-2.84741 -1.9944,-2.847401 5.6979,-5.862711 5.69791,-5.86271 2.84634,-5.709441 2.84634,-5.709441 0.803,3 0.803,3 h 1.08798 1.08797 l 0.86421,-2.722897 0.86422,-2.722898 -0.89938,-5.323373 -0.89938,-5.323374 -3.3929,-4.03224 -3.39291,-4.032238 2.85125,-1.997095 2.85126,-1.997096 v -1.257728 -1.257728 l -3,-0.005 -3,-0.005 -4.33334,-2.642086 -4.33333,-2.642084 v -0.666666 -0.666667 l 4.33333,2.642084 4.33334,2.642086 3.04184,0.0049 3.04185,0.0049 0.84146,2.192811 0.84146,2.192809 -2.33197,1.705182 -2.33198,1.705181 2.96951,4.016472 2.9695,4.016471 0.64672,6.730519 0.64672,6.730518 -2.21403,3.379032 -2.21403,3.379033 1.71314,0.593708 1.71314,0.593708 7.33333,2.032548 7.33334,2.032549 -5.33334,-0.717049 -5.33333,-0.71705 -4.33393,-1.370154 -4.33393,-1.370155 -0.8213,-3.272289 -0.82129,-3.27229 -1.80237,2.375891 -1.80237,2.375991 -0.0424,1.019597 -0.0424,1.019599 3.66667,2.313734 3.66666,2.313736 0.10783,3.018279 0.10783,3.018279 -2.64286,-0.838811 -2.64286,-0.838812 0.89888,2.342457 0.89889,2.342458 -1.87482,-1.555956 -1.87481,-1.555956 -0.8267,2.154354 -0.82671,2.15435 0.74025,1.19774 0.74024,1.19774 -2.06924,-0.79405 -2.06925,-0.79404 0.0444,1.14265 0.0444,1.14265 2.5685,3.08126 2.5685,3.08126 4.13326,-4.41459 4.13326,-4.4146 -4.74612,6.43546 -4.74612,6.43547 v 1.2312 1.23121 h -1.21481 -1.21481 z m 2.4856,-6.44721 -0.78055,-1.26295 -1.26295,0.78054 -1.26296,0.78055 0.78055,1.26295 0.78055,1.26296 1.26295,-0.78055 1.26295,-0.78055 z m 3.94305,-5.42546 -0.95136,-1.53935 1.53934,0.951367 1.53935,0.951373 v 0.58797 0.58798 h -0.58798 -0.58798 z m -44.958929,-3.46066 -0.576965,-1 0.258748,-3.106607 0.258748,-3.106608 1.418619,-0.893392 1.41862,-0.893393 0.487576,-2.525362 0.487576,-2.525362 3.664068,-2.733033 3.664067,-2.733032 1.918194,2.591727 1.918194,2.591728 0.600158,2.233576 0.600159,2.233576 -2.18242,-0.802986 -2.18242,-0.802988 -0.784361,-1.160368 -0.784362,-1.160368 -1.712232,2.063113 -1.71223,2.063112 h 1.371766 1.371767 l -0.707127,2.704057 -0.707126,2.704058 -2.501382,-0.793908 -2.50138,-0.793907 -0.157894,2.423183 -0.157895,2.423184 0.157895,1 0.157894,1 h -1.254644 -1.254644 z m 54.419589,-4.333334 -0.82404,-1.333333 h 1.41202 1.41202 v 1.333333 1.333334 h -0.58798 -0.58797 z M 87.193916,91.73784 v -0.503408 l 2.333334,-1.829926 2.333333,-1.829926 -1.829927,2.333333 -1.829925,2.333333 h -0.503408 -0.503407 z m -12.888889,-8.385483 0.888889,-0.888888 0.888889,0.888888 0.888888,0.888889 h -1.777777 -1.777777 z m -6.571767,-4.650455 -0.951367,-1.539345 1.539346,0.951366 1.539344,0.951368 v 0.587978 0.587977 h -0.587978 -0.587977 z m 56.79399,-7.793989 v -1.777778 l 0.88889,0.888888 0.88889,0.88889 -0.88889,0.888889 -0.88889,0.888888 z m -46.916667,-0.910819 1.75,-0.700292 0.805556,0.805555 0.805555,0.805556 -2.555555,-0.105263 -2.555556,-0.105264 z m 25.008447,-3.788535 -2.57488,-1.947876 3.00161,-3.195064 3.0016,-3.195063 4.17249,-0.834497 4.17248,-0.834496 2.01984,2.019841 2.01984,2.019842 h -3.11564 -3.11564 l 1.68659,2.032221 1.6866,2.032221 -0.85667,0.856669 -0.85667,0.856666 v -1.698207 -1.698208 l -2,0.767472 -2,0.767472 v -1.291486 -1.291487 h -1.19068 -1.19068 l -0.79405,2.069251 -0.79404,2.069251 1.31806,-0.814607 1.31806,-0.814607 v 2.07869 2.078689 l -1.66667,-0.0424 -1.66666,-0.0424 -2.57489,-1.947877 z M 97.888625,50.047855 94.583334,46.907912 h 0.939732 0.939732 l 4.104682,2.49621 4.10469,2.496209 -1.73913,0.643733 -1.73912,0.643734 z m 10.468555,-9.473276 -1.82993,-2.333334 2.33333,1.829927 2.33334,1.829925 v 0.503408 0.503407 h -0.50341 -0.50341 z"
         id="path36487" />
      <path
         style="fill:#353535;stroke-width:1.33333"
         d="m 106.52725,136.73903 -6.666667,-1.98316 -2.150421,-2.51247 -2.150423,-2.51247 -0.865335,-5.41151 -0.865334,-5.41151 -0.984244,0.0182 -0.984243,0.0182 -3,0.80396 -3,0.80397 v 1.84449 1.8445 h -6.140859 -6.140859 l -3.961441,3.33333 -3.961443,3.33333 -2.231032,-0.0472 -2.231033,-0.0472 -2.816372,-1.61942 -2.816371,-1.61942 -6.815544,-8.23317 -6.815544,-8.23316 -1.326892,-0.82007 -1.326892,-0.82006 -3.374526,-10.682267 -3.374526,-10.682265 v -9.289907 -9.289907 l -3,0.717892 -3.000001,0.717893 -3.450914,-2.359157 -3.450915,-2.359156 -5.803453,-5.0123 -5.8034524,-5.012299 1.2543673,-1.253697 1.2543671,-1.253696 9.700179,-1.601607 9.70018,-1.601605 3.131635,2.942018 3.131636,2.942019 4.969287,-6.769523 4.969287,-6.769523 5.901901,-4.060614 5.901901,-4.060615 11.630331,-3.712056 11.630331,-3.712055 0.411622,-4.828671 0.411621,-4.828672 5.509412,-4.715852 5.509413,-4.7158521 0.909815,1.0122994 0.909813,1.0122997 0.731563,7.589932 0.731562,7.589933 -1.895745,1.573327 -1.895742,1.573327 v 1.008313 1.008313 l 4.028608,1.668705 4.028602,1.668704 0.63744,1.031386 0.63743,1.031387 -6.947023,-2.63966 -6.947021,-2.639662 -8.052351,0.581701 -8.052352,0.5817 -6.284846,1.852964 -6.284845,1.852964 -7.303562,5.29683 -7.303563,5.296831 -3.604938,5.70317 -3.60494,5.703169 h -0.960175 -0.960176 l -3.179811,-2.476655 -3.179812,-2.476656 -8.420488,1.008255 -8.420488,1.008255 -0.713026,0.713025 -0.713026,0.713027 0.762467,1.233696 0.762466,1.233697 7.037714,4.836512 7.037714,4.836514 4.000001,-1.09803 4,-1.098028 -3.077728,-0.997992 -3.077727,-0.997993 0.41106,-2.88548 0.411061,-2.88548 h 5.5344 5.5344 l -1.061033,2 -1.061033,2 0.390472,3.495825 0.39047,3.495824 -2.19717,-0.16249 -2.197172,-0.162492 -0.423328,7.333333 -0.42333,7.333334 2.214879,9.333333 2.214879,9.333337 3.1518,5.33333 3.151801,5.33333 7.192362,7.66667 7.19236,7.66667 h 3.9754 3.9754 l 0.930707,-0.93071 0.930708,-0.93071 -3.041819,-1.69563 -3.041819,-1.69562 3.333334,0.008 3.333333,0.008 7.333333,-0.60439 7.333334,-0.6044 0.380475,-1.84785 0.380473,-1.84786 5.257003,-1.40317 5.257002,-1.40318 0.695856,0.69586 0.695858,0.69584 0.0075,2.77778 0.0075,2.77778 1.333555,4.80075 1.333556,4.80076 5.325679,2.09198 5.32567,2.09199 v -1.48091 -1.48092 l 1.74138,2.38147 1.74137,2.38146 3.22525,-0.45996 3.22525,-0.45996 1.61375,-3.24889 1.61369,-3.2489 -1.29395,-2.41777 -1.29395,-2.41777 h 0.80123 0.80123 l 2.72216,1.45686 2.72216,1.45685 1.45685,-1.45685 1.45686,-1.45686 h 2.60665 2.60665 l -2.22708,-2.46089 -2.22707,-2.46089 2.78386,-3.53911 2.78387,-3.53911 h 1.74146 1.74147 l 1.65685,-4 1.65686,-4 2.83824,-0.18995 2.83824,-0.18994 2.9251,-0.0924 2.92512,-0.0924 4.74155,4.31472 4.74156,4.31471 v 3.76102 3.76101 l -2.43832,2.20665 -2.43832,2.20666 h -1.41713 -1.41714 l -0.83238,3.31647 -0.83238,3.31646 -3.37196,2.20939 -3.37196,2.2094 -9.63428,-2.11699 -9.63427,-2.11696 -2.30593,-0.88487 -2.30593,-0.88487 v 2.06705 2.06704 l -2.96334,2.07561 -2.96334,2.0756 -2.70333,-0.0929 -2.70332,-0.0929 z m 47.15464,-7.95241 0.48797,-2.46935 -4.4045,-3.67704 -4.4045,-3.67704 -0.74804,0.74804 -0.74805,0.74805 2.38387,1.74312 2.38386,1.74312 -2.13764,2.13764 -2.13764,2.13763 0.83619,1.35298 0.83619,1.35298 -2.41784,0.92919 -2.41784,0.9292 3.33333,0.87888 3.33333,0.87888 2.66667,-1.64346 2.66667,-1.64347 z m -10.48797,-3.21204 v -1.33333 l -2.33334,0.0204 -2.33333,0.0204 2,1.29251 2,1.2925 0.33333,0.0204 0.33334,0.0204 z m 19.76661,-7.11791 0.43327,-3.78458 -2.41836,-2.67225 -2.41835,-2.67226 -2.68159,-1.28339 -2.68158,-1.28339 2.50057,2.0095 2.50056,2.00949 -0.79205,2.06406 -0.79206,2.06406 h -2.04185 -2.04184 v 1.17008 1.17007 l 1.98532,1.64767 1.98532,1.64767 -0.79388,1.28451 -0.79387,1.28451 3.80856,-0.43559 3.80855,-0.43558 z m -9.76661,-6.21542 -0.82404,-1.33334 h -1.25466 -1.25464 v 1.33334 1.33333 h 2.0787 2.07868 z M 36.527249,61.638542 V 60.52655 l -2.120323,-0.813646 -2.120323,-0.813644 -1.414998,0.874518 -1.414998,0.874517 2.398416,1.753764 2.398418,1.753765 1.136904,-0.702645 1.136904,-0.702645 z m 54.741918,-35.063964 2.502697,-3 0.04436,-7.112038 0.04436,-7.1120401 -5.333333,4.2240781 -5.333334,4.224079 v 5.123528 5.123529 l 2.333334,0.609763 2.333333,0.609764 0.452943,0.154669 0.452944,0.154668 z m -2.741917,-2.333333 -1.922772,-1.188339 0.666666,-0.666666 0.666667,-0.666667 1.922772,1.188339 1.922772,1.188338 -0.666667,0.666667 -0.666666,0.666667 z m 23.33333,106.666665 0.82405,-1.33333 h 0.66667 0.66666 l -0.82404,1.33333 -0.82405,1.33334 h -0.66667 -0.66666 z m 4.31111,-2.83211 1.64445,-1.65678 0.74639,0.7464 0.74639,0.74639 -2.39083,0.91038 -2.39084,0.91038 z m -36.232614,-12.54362 -2.588172,-1.9576 h 2.699284 2.699284 v 2 2 l -0.111106,-0.0424 -0.111116,-0.0424 z m 26.831644,-1.13727 -0.75264,-1.96134 -3.74542,-0.56305 -3.74541,-0.56305 4.19068,-0.19978 4.19068,-0.19978 0.84071,2.19084 0.8407,2.19084 -0.53333,0.53333 -0.53334,0.53333 z m 7.97623,-2.96427 -3.55303,-3.55303 v -2.42211 -2.42211 l -1.43863,-3.157445 -1.43863,-3.157444 4.9053,-4.905293 4.90529,-4.905295 h 1.80393 1.80393 l 3.3417,1.52258 3.3417,1.522581 -1.26831,2.369859 -1.26831,2.36986 1.65601,0.761919 1.65602,0.761918 -3.2017,-0.808224 -3.20169,-0.808225 0.89888,2.342457 0.89889,2.342458 -1.87482,-1.555956 -1.87481,-1.555956 -0.8267,2.154354 -0.82671,2.154352 0.74025,1.19774 0.74024,1.19774 -1.73866,-0.66719 -1.73866,-0.66718 -1.75631,2.81229 -1.7563,2.8123 0.72682,0.72683 0.72683,0.72683 1.82157,-1.51177 1.82157,-1.51176 0.81383,0.81383 0.81383,0.81382 -1.94877,1.94877 -1.94876,1.94876 0.87658,1.41834 0.87658,1.41834 5.86451,-6.52583 5.8645,-6.52584 -4.8812,6.66667 -4.8812,6.66667 -0.96126,0.37121 -0.96127,0.37121 z m -25.553034,0.81061 2.666667,-1.14591 1.333333,-0.0733 1.333334,-0.0733 -2,1.2925 -2,1.2925 -2,-0.0733 -2,-0.0733 z m 17.206014,-9.53935 -0.95137,-1.53934 1.53935,0.95136 1.53934,0.95137 v 0.58798 0.58798 h -0.58798 -0.58797 z m 48.79399,-3.571764 v -4.222223 h -1.22212 -1.22214 l -2.87677,3.666667 -2.87677,3.66667 0.96392,-2 0.96392,-2.000004 2.57985,-2.871326 2.57985,-2.871328 -2.44488,-1.421462 -2.44486,-1.421461 2.9183,-0.04055 2.9183,-0.04055 0.909,6.061593 0.90898,6.061588 -0.82729,0.8273 -0.82729,0.8273 z m -34.12733,0.905104 -0.95136,-1.53935 1.53934,0.951367 1.53935,0.951373 v 0.58797 0.58798 h -0.58798 -0.58798 z m -43.914521,-4.46066 -0.62482,-2 -0.611289,-1.964738 -0.611288,-1.964737 1.795997,-1.035263 1.795998,-1.035262 0.481957,-2.525362 0.481959,-2.525362 3.664068,-2.733033 3.664067,-2.733032 1.960194,2.591727 1.960195,2.591728 0.0424,1.666667 0.04241,1.666667 h -2 -2 v -1.291487 -1.291487 l -2,0.767472 -2,0.767472 v 1.936038 1.936037 l 1.666667,-1.0013 1.666667,-1.001301 -1.655099,2.04529 -1.655099,2.045291 0.988432,1.042957 0.988432,1.042958 -3,-0.922154 -3,-0.922153 -0.157894,2.423183 -0.157895,2.423184 0.157895,1 0.157894,1 H 78.485404 77.77689 Z m 64.458511,-6.910819 1.75,-0.700292 0.80556,0.805555 0.80555,0.805556 -2.55555,-0.105267 -2.55556,-0.105267 1.75,-0.700292 z m -11.39973,-1.909833 -4.31639,-1.246816 -0.82584,-3.290386 -0.82583,-3.290384 -1.06676,0.659292 -1.06676,0.659292 0.69391,-2.653511 0.69391,-2.653509 1.18175,0.730359 1.18174,0.73036 v 2.032421 2.032423 l 1.66667,-0.547984 1.66667,-0.547983 0.79974,-5.896461 0.79974,-5.896462 0.20026,5.369992 0.20026,5.369992 -2.08269,2.973456 -2.08269,2.973458 1.74935,0.599153 1.74936,0.599155 4.66667,1.27048 4.66666,1.270479 h -2.66666 -2.66667 z m -11.01693,-2.433992 v -1.254644 l 1.31806,-0.814607 1.31806,-0.814607 -0.79405,2.069251 -0.79404,2.069251 h -0.52402 -0.52401 z m -15.66667,-17.706017 -3,-1.446845 v -0.922931 -0.922931 l 2.48294,-2.247033 2.48295,-2.247033 4.47809,-1.284299 4.47808,-1.284299 1.99135,1.991348 1.99135,1.99135 h -3.03107 -3.03107 l 0.86702,1.402872 0.86703,1.402872 -3.64848,-0.402872 -3.64848,-0.402872 -0.64616,1.852261 -0.64617,1.85226 1.50631,-0.930949 1.50631,-0.930951 v 2.07869 2.078689 l -1,-0.09024 -1,-0.09024 z m 22.18072,-5.540283 -3.48595,-5.749986 2.48595,-1.552502 2.48595,-1.5525 v -1.322034 -1.322035 l -3,-0.005 -3,-0.005 -4.33334,-2.642086 -4.33333,-2.642084 v -0.666666 -0.666667 l 4.33333,2.642084 4.33334,2.642086 3.04184,0.0049 3.04185,0.0049 0.84146,2.192811 0.84146,2.192809 -2.44248,1.785986 -2.44248,1.785985 2.06813,2.354537 2.06814,2.354539 0.91422,3 0.91422,3.000102 -0.42318,-0.04214 -0.42318,-0.04215 z M 99.168585,50.210723 97.483401,48.1802 l 2.18859,0.839842 2.188589,0.839841 v 1.190681 1.190682 h -0.5034 -0.50341 z m 9.898005,-8.842155 -0.95136,-1.539345 1.53934,0.951366 1.53935,0.951368 v 0.587978 0.587977 h -0.58798 -0.58798 z m -5.33333,-4 -0.95137,-1.539345 1.53935,0.951366 1.53934,0.951368 v 0.587978 0.587977 h -0.58797 -0.58798 z"
         id="path36485" />
      <path
         style="fill:#1b1b1b;stroke-width:1.33333"
         d="m 106.09997,136.41306 -7.093941,-2.31844 -1.254827,-1.92669 -1.254825,-1.92668 -1.476183,-5.66667 -1.476184,-5.66667 -0.841714,0.0182 -0.841713,0.0182 -3,0.80396 -3,0.80397 v 1.84449 1.8445 h -6.503407 -6.503408 l -1.775129,2.1389 -1.77513,2.1389 -3.230905,1.22839 -3.230907,1.22838 -2.464032,-0.78205 -2.464032,-0.78205 -10.026525,-11.26939 -10.026526,-11.26938 0.05589,-2.31585 0.05589,-2.31585 2.277446,4.11667 2.277446,4.11667 7.333333,8.33707 7.333334,8.33708 3.0873,1.21311 3.0873,1.21311 2.759499,-1.47684 2.7595,-1.47684 -1.516415,-0.93719 -1.516413,-0.9372 6.618688,-1.69632 6.618688,-1.69632 1.586532,0.98053 1.586532,0.98053 1.464395,-1.96988 1.464394,-1.96988 4.549544,-1.57316 4.549543,-1.57317 0.571351,0.57135 0.57135,0.57135 1.57621,7.10133 1.576211,7.10133 4.63622,2.27203 4.63623,2.27204 1.62397,-0.54714 1.62397,-0.54713 0.78805,1.27509 0.78806,1.27511 h 3.17904 3.17904 l 2.03949,-2.91177 2.03948,-2.91179 -0.81112,-3.23177 -0.81112,-3.23177 2.93247,1.56941 2.93247,1.56941 1.86994,-1.55192 1.86994,-1.55191 1.71149,0.68746 1.7115,0.68746 -2.66667,0.14767 -2.66666,0.14766 2.58817,1.9576 2.58817,1.95759 h 0.95367 0.95367 l -0.72988,-3 -0.72988,-3 -1.83239,-2.12755 -1.83238,-2.12756 2.78386,-3.53911 2.78387,-3.53911 h 1.74146 1.74147 l 1.65685,-4 1.65686,-4 3.5049,-0.1538 3.50491,-0.1538 2,-0.20984 2,-0.20984 5,4.63424 5,4.63423 v 1.10914 1.10913 l -4.13812,-4.71307 -4.13812,-4.71306 h -1.33787 -1.33786 l 0.76748,2 0.76746,2 h -1.8491 -1.84911 l -2.10904,0.80932 -2.10905,0.80932 v -2.14265 -2.14265 h -1.38024 -1.38026 l 1.42716,2.66666 1.42716,2.66667 h 1.95308 1.9531 l 0.20308,1.66667 0.20309,1.66666 0.13763,1.84228 0.13764,1.84227 2.69314,1.78818 2.69315,1.78819 3.88745,-2.01684 3.88746,-2.01684 -2.46131,2.71972 -2.46131,2.71971 h -1.6488 -1.6488 l -0.83238,3.31647 -0.83238,3.31646 -3.37196,2.20939 -3.37196,2.2094 -10.1941,-2.24 -10.19413,-2.23998 -1.74609,-1.44913 -1.74609,-1.44913 v 2.75432 2.75432 l -2.96334,2.07561 -2.96334,2.0756 -2.70333,-0.0882 -2.70332,-0.0882 z m 45.71199,-4.11809 2.36468,-2.61294 -0.84402,-3.36281 -0.844,-3.3628 -3.91448,-2.02425 -3.91446,-2.02426 h -0.60806 -0.60805 l 0.67733,2.59016 0.67735,2.59015 -3.19191,-0.34031 -3.19189,-0.34031 -1.55204,-0.95921 -1.55203,-0.95921 0.75108,-1.9573 0.7511,-1.9573 h -1.56872 -1.56873 l 0.42607,3 0.42607,3 4.23569,1.86534 4.23571,1.86534 -2.89611,2.34512 -2.8961,2.34512 4.66041,1.33595 4.6604,1.33596 1.46001,0.12026 1.46002,0.12027 2.36468,-2.61294 z m -13.06248,-16.94261 -0.8889,-0.88889 -0.88889,0.88889 -0.88888,0.88889 h 1.77777 1.77778 z m -18.26197,-3.03685 1.38741,-2.59241 1.46447,-0.90509 1.46446,-0.90509 -2.29164,3.49749 -2.29165,3.4975 h -0.56024 -0.56023 z m -6.35067,-1.7414 -1.43709,-1.73158 -2.09193,-6.16163 -2.09192,-6.161632 4.80567,-4.805678 4.80568,-4.805677 h 1.13726 1.13727 l 3.39607,1.547353 3.39607,1.547354 v 1.814565 1.814565 l -3.33334,1.518768 -3.33333,1.518768 v 0.852647 0.852647 l 1.33333,1.6 1.33334,1.6 -1.6,-1.33333 -1.6,-1.333337 h -1.22993 -1.22993 l 1.68519,2.030527 1.68518,2.03052 -1.858,-0.71298 -1.858,-0.71298 -1.75631,2.81229 -1.7563,2.8123 0.72682,0.72683 0.72683,0.72683 2.25052,-1.85667 2.25051,-1.85667 -1.73223,3.33334 -1.73223,3.33333 -0.29606,0.36555 -0.29606,0.36556 z m 11.72374,-5.50294 v -0.5034 l 2.33334,-1.82993 2.33333,-1.82993 -1.82993,2.33334 -1.82992,2.33333 h -0.50341 -0.50341 z M 35.227569,97.309309 33.619567,92.907913 32.889649,81.261963 32.15973,69.616015 l -2.974252,0.74649 -2.974252,0.74649 -7.84199,-6.337145 -7.841988,-6.337144 -0.9120225,-1.366403 -0.9120227,-1.366401 0.6573787,-1.063662 0.6573785,-1.063661 2.254644,0.105263 2.254644,0.105264 -1.666666,0.672514 -1.666667,0.672515 v 1.179028 1.179029 l 7.320808,5.527264 7.320809,5.527265 4.632419,-0.869047 4.63242,-0.869047 0.91945,-1.487702 0.91945,-1.487702 -1.872678,1.128623 -1.872678,1.128623 1.781454,-2.197539 1.781453,-2.197538 -0.860143,-1.39174 -0.860142,-1.39174 h 2.045356 2.045356 l -0.839118,4.333334 -0.839117,4.333333 -1.794216,1.066254 -1.794216,1.066253 v 8.309843 8.309841 l 1.890684,7.288776 1.890684,7.288774 -0.403191,0.40319 -0.40319,0.40319 z m 113.299681,1.677293 v -1.254644 l 1.31807,-0.814606 1.31805,-0.814607 -0.79404,2.069251 -0.79405,2.069254 h -0.52402 -0.52401 z m 6.82133,-1.078689 -0.15466,-3 h -1.55556 -1.55555 l 0.87732,-0.877321 0.87732,-0.87732 -1.48503,-1.789347 -1.48502,-1.789345 h 1.5296 1.52958 l 1.35414,3.561634 1.35413,3.561635 -0.5658,2.105032 -0.5658,2.105029 z m -78.084644,-2 -0.512953,-1.666667 0.11036,-2.309681 0.11036,-2.309681 3.404097,-3.023652 3.404087,-3.023652 -1.901211,2.467842 -1.90121,2.467843 -0.501995,2.198824 -0.501993,2.198824 -0.175495,2.333333 -0.175495,2.333334 h -0.4228 -0.422799 z m 65.041084,-7.222223 0.8889,-0.888888 0.88889,0.888888 0.88888,0.88889 h -1.77777 -1.77778 z m -6.02777,-1.355262 1.75,-0.700292 0.80556,0.805554 0.80555,0.805556 -2.55555,-0.105262 -2.55556,-0.105264 z m -11.04909,-5.689635 -2.03424,-3.933787 0.0424,-1.066213 0.0424,-1.066214 1.96259,2.595004 1.96259,2.595006 1.23923,-1.261672 1.23924,-1.261671 0.53163,-5.333333 0.53163,-5.333334 0.22414,5.571428 0.22415,5.57143 -2.08501,2.08501 -2.08501,2.08501 0.83036,1.343561 0.83037,1.343562 h -0.71112 -0.71111 z m -44.125549,0.26712 2.504605,-3 h 2.623276 2.623276 l -1.71021,2.060678 -1.710212,2.060679 -1.623908,-0.623152 -1.623908,-0.623152 -1.793762,1.562474 -1.793763,1.562473 z M 128.52725,65.574579 v -1.777777 l 0.88889,0.888888 0.88889,0.888889 -0.88889,0.88889 -0.88889,0.888888 z m -28,-1.333333 v -1.777778 l 0.88889,0.888888 0.88889,0.88889 -0.88889,0.888889 -0.88889,0.888888 z m -71.493332,-1.936151 -0.742971,-1.936151 0.863507,-1.397182 0.863507,-1.397183 2.254644,0.154668 2.254644,0.154669 -2.333334,0.609764 -2.333333,0.609763 v 1.791124 1.791123 l 1.666667,0.672514 1.666666,0.672515 -1.708513,0.105267 -1.708513,0.10526 z m 75.493332,0.602817 v -1.777777 l 0.88889,0.888888 0.88889,0.888889 -0.88889,0.88889 -0.88889,0.888888 z m 20.38566,-3.763526 -2.7825,-3.763528 2.53176,-1.581104 2.53175,-1.581106 v -1.322034 -1.322035 l -3,-0.005 -3,-0.005 -4.33334,-2.642086 -4.33333,-2.642084 v -0.666666 -0.666667 l 4.33333,2.642084 4.33334,2.642086 3.04184,0.0049 3.04185,0.0049 0.84146,2.192811 0.84146,2.192809 -2.31997,1.696403 -2.31997,1.696401 2.25668,3.444122 2.25667,3.444222 h -0.56927 -0.56926 z m -17.27455,1.541304 0.88889,-0.888888 0.88889,0.888888 0.88889,0.888889 h -1.77778 -1.77778 z m 2.05924,-1.878508 -1.39578,-0.862636 2.44605,-0.634642 2.44605,-0.634642 1.66666,0.56077 1.66667,0.56077 v 0.936508 0.936508 h -2.71694 -2.71694 z m -76.898202,-3.873563 -3.061184,-2.552241 -6.938816,0.533556 -6.938816,0.533554 6.931546,-1.446413 6.931547,-1.446412 4.170754,3.509457 4.170754,3.509459 -1.102301,-0.04436 -1.1023,-0.04436 z m 6.394517,-2.692373 1.427158,-2.666667 h 0.666666 0.666667 l -1.427157,2.666667 -1.427158,2.666666 h -0.666666 -0.666667 z m 59.206012,-2.872678 -0.951366,-1.539345 1.539345,0.951367 1.539344,0.951368 v 0.587977 0.587977 h -0.587977 -0.587978 z m -53.949368,-4.317233 1.923313,-2.368467 5.603397,-3.855239 5.603397,-3.855238 10.310151,-3.365574 10.310151,-3.365572 h 1.829808 1.829807 V 23.14033 18.039416 l 3,-2.700731 3,-2.70073 2,-1.000504 2,-1.000504 -4.333333,3.565453 -4.333334,3.565453 v 5.146845 5.146847 l 2.762219,0.876693 2.762217,0.876695 2.671707,-2.417861 2.671705,-2.41786 -0.433924,-8.30816 -0.433924,-8.3081599 0.830848,0.9391764 0.830848,0.9391765 0.731563,7.589932 0.731562,7.589933 -1.895745,1.573327 -1.895742,1.573327 v 1.008313 1.008313 l 4.028608,1.668705 4.028602,1.668704 0.60766,0.983198 0.60764,0.983199 -8.785972,-3.189139 -8.785977,-3.189139 -4.850281,0.831431 -4.850281,0.831432 -8.562958,2.561776 -8.562959,2.561778 -5.437042,4.400054 -5.437041,4.400055 -2,1.161679 -2,1.161678 z m 59.282701,-7.682767 -0.95137,-1.539345 1.53935,0.951366 1.53934,0.951368 v 0.587978 0.587977 h -0.58797 -0.58798 z"
         id="path36483" />
    </g>
  </g>
</svg>
