<?xml version="1.0" encoding="UTF-8" standalone="no"?>
<svg
   width="1606"
   height="94"
   viewBox="0 0 1606 94"
   version="1.1"
   id="svg14"
   sodipodi:docname="title.svg"
   inkscape:version="1.2.1 (9c6d41e410, 2022-07-14)"
   xmlns:inkscape="http://www.inkscape.org/namespaces/inkscape"
   xmlns:sodipodi="http://sodipodi.sourceforge.net/DTD/sodipodi-0.dtd"
   xmlns="http://www.w3.org/2000/svg"
   xmlns:svg="http://www.w3.org/2000/svg">
  <defs
     id="defs18" />
  <sodipodi:namedview
     id="namedview16"
     pagecolor="#505050"
     bordercolor="#eeeeee"
     borderopacity="1"
     inkscape:showpageshadow="0"
     inkscape:pageopacity="0"
     inkscape:pagecheckerboard="0"
     inkscape:deskcolor="#505050"
     showgrid="false"
     inkscape:zoom="1.5068493"
     inkscape:cx="574.70909"
     inkscape:cy="59.063636"
     inkscape:window-width="1920"
     inkscape:window-height="1017"
     inkscape:window-x="1912"
     inkscape:window-y="383"
     inkscape:window-maximized="1"
     inkscape:current-layer="svg14" />
  <circle
     id="path717"
     style="fill:#87cefa;stroke:#000000"
     cx="855.42725"
     cy="229.61818"
     r="0.16704825" />
  <circle
     id="path825"
     style="fill:#87cefa;stroke:#000000"
     cx="703.45453"
     cy="233.60001"
     r="0.16704825" />
  <path
     style="fill:#87cefa;stroke-width:1.06841"
     id="path827"
     d="m 19.983345,26.414285 c 2.651551,-0.954727 5.153534,-2.317774 7.71609,-3.516734 2.47082,-0.888938 4.86553,-1.99855 7.297551,-3.001402 2.399562,-0.915532 4.652085,-2.223156 7.033471,-3.186801 2.14841,-0.916021 4.326954,-1.747805 6.429827,-2.785852 0.917134,-0.478615 1.86585,-0.892456 2.717099,-1.511477 0.447461,-0.325383 1.226455,-1.195637 1.775122,-1.474234 -2.222898,1.447463 -3.306584,0.297195 -4.959346,-1.5545325 -0.181322,-0.2031515 -0.01611,-0.8425216 -0.272132,-0.7994479 -0.262427,0.044154 -0.06963,0.5784995 -0.118435,0.8651626 -0.06361,0.3738251 -0.145776,0.7435608 -0.218674,1.1153408 -0.749736,3.16855 -2.003317,6.151517 -2.998589,9.229279 -1.201825,3.525285 -2.402101,7.039073 -3.79583,10.479616 -1.524388,3.326426 -2.923836,6.717211 -4.340288,10.099717 -1.612679,3.754421 -3.277868,7.47543 -4.625826,11.356471 -1.003406,3.734096 -2.096216,7.449333 -2.934345,11.233665 -0.767373,3.722276 -1.78237,7.373189 -2.82056,11.012659 -0.531235,1.821431 -0.965933,3.673084 -1.444363,5.511484 -0.186604,0.717031 -0.593277,2.187413 -0.659427,2.938448 -0.05648,0.641289 -0.01121,1.288507 -0.01682,1.932761 1.36804,3.149692 0.877825,3.707346 4.667315,4.392501 1.579272,0.28554 4.069563,-1.601743 5.395654,-2.531827 0.313836,-0.243341 0.62545,-0.490178 0.941508,-0.730023 0.0051,-0.0042 2.210472,-1.488207 1.930175,-1.04368 0.0683,0.01052 0.14287,-0.0014 0.205065,0.03153 0.09409,0.04968 0.04516,0.24964 0.133135,0.311232 0.563459,0.39433 1.40218,0.842072 1.987037,1.169273 3.198496,1.812843 6.555174,3.02258 10.064723,3.855794 3.998979,0.835342 8.045289,1.046114 12.094198,0.68674 4.026391,-0.523597 7.90831,-1.903888 11.714141,-3.389411 1.868837,-0.719073 3.552263,-1.84361 5.227074,-2.977658 4.622207,-3.169324 0.541828,-10.349684 -4.080378,-7.180359 v 0 c -1.193048,0.832572 -2.391795,1.6593 -3.732515,2.184374 -3.181655,1.248467 -6.423874,2.432121 -9.78256,2.929174 -3.29011,0.329149 -6.579497,0.106793 -9.834346,-0.53152 -2.870103,-0.659365 -5.587925,-1.64244 -8.197681,-3.133326 -2.25134,-1.232555 -4.151421,-2.76097 -6.836358,-2.34306 -2.384699,0.499694 -4.087555,1.399823 -6.001796,3.041961 -0.902343,0.644223 -0.438786,0.329649 -1.391681,0.94189 -0.07564,0.05354 -0.283702,0.144352 -0.205197,0.192635 0.177847,0.109379 0.426267,-0.04248 0.609364,0.05592 2.638227,1.417696 2.029995,0.859847 2.780516,3.483351 -0.156214,0.43828 -0.279186,0.843787 0.02824,-0.523754 0.50992,-2.268043 1.190357,-4.494065 1.758434,-6.74418 1.089507,-3.821585 2.15153,-7.656058 2.959301,-11.563767 0.742733,-3.44323 1.783685,-6.804321 2.647565,-10.212354 1.269137,-3.706187 2.904967,-7.231206 4.421158,-10.819841 1.430123,-3.415523 2.848033,-6.836455 4.381003,-10.19863 1.473815,-3.645482 2.751127,-7.366179 4.021121,-11.101474 1.096968,-3.443768 2.539803,-6.764454 3.279294,-10.338484 0.255139,-1.403343 0.92584,-4.5310596 0.295844,-5.8042923 -1.729952,-3.4962217 -3.56945,-4.1130169 -6.534164,-2.5831059 -1.130293,0.8642139 -2.075736,1.8866236 -3.438771,2.342405 -1.919318,0.993845 -3.96229,1.6729403 -5.924454,2.5553339 -2.381407,0.9898184 -4.661484,2.2393253 -7.054788,3.1955993 -2.529323,1.053989 -5.031112,2.181491 -7.595524,3.132841 -2.371559,1.109785 -4.685002,2.374177 -7.132946,3.274003 -5.169202,1.892707 -2.732421,9.922782 2.436782,8.030076 z" />
  <ellipse
     id="path829"
     style="fill:#da70d6;stroke:#000000;stroke-width:1.06841"
     cx="139.80998"
     cy="132.64822"
     rx="0.17029093"
     ry="0.1870565" />
  <circle
     id="path880"
     style="fill:#da70d6;stroke:#000000"
     cx="444.63635"
     cy="251.51817"
     r="0.16704825" />
  <path
     style="fill:#da70d6;stroke-width:1.06841"
     id="path882"
     d="m 111.86213,43.615041 c -2.9338,1.189517 -5.69643,2.84352 -8.33839,4.668438 -2.55337,1.696033 -4.764858,3.868939 -6.907376,6.128904 -1.770025,1.950521 -3.279936,4.123395 -4.570246,6.478151 -1.572881,2.735783 -2.231941,5.77808 -2.561017,8.949659 -0.184351,3.289454 -0.338017,6.600546 -0.139058,9.892488 0.1056,2.72371 1.236994,4.978792 2.632793,7.143643 1.761483,2.41289 4.176234,3.68608 6.774317,4.68323 2.989597,1.029616 6.106517,1.291244 9.216577,1.426093 3.26264,0.273507 6.45423,-0.503581 9.62605,-1.216631 2.57228,-0.66151 5.11856,-1.367207 7.56479,-2.471253 2.72387,-1.318001 4.92028,-3.531599 6.90354,-5.91597 1.96371,-2.923843 3.24231,-6.310794 4.2668,-9.742757 0.71216,-2.857942 1.32454,-5.732782 1.67862,-8.671191 0.53562,-3.758821 -0.98594,-7.08134 -2.64952,-10.227532 -1.26168,-1.946323 -2.66352,-3.987059 -4.45092,-5.406815 -0.46743,-0.371287 -0.97646,-0.674913 -1.46468,-1.01237 -1.87507,-1.174306 -3.98986,-1.696314 -6.01119,-2.466026 -1.65067,-0.67495 -3.28012,-1.353599 -5.00477,-1.770979 -0.30249,-0.05338 -0.60459,-0.109525 -0.90747,-0.16015 -0.19352,-0.03235 -0.38795,-0.0579 -0.58168,-0.08876 -0.0743,-0.01182 -0.29378,-0.06446 -0.22231,-0.03929 0.28556,0.100581 0.8265,-0.06034 0.8664,0.266142 0.96684,7.911234 -2.28979,8.451667 1.04359,7.539763 2.60941,-0.417102 5.20099,-0.95117 7.8176,-1.315022 1.50019,-0.173588 0.72798,-0.05939 2.31539,-0.352796 5.36666,-1.035532 4.03345,-9.372327 -1.33319,-8.336794 v 0 c -1.11878,0.231645 -0.46918,0.118573 -1.95502,0.292872 -2.91474,0.409374 -5.80809,0.97783 -8.70702,1.498191 -3.24527,0.887813 -1.93895,0.199013 -2.24416,8.440894 -0.0102,0.274236 2.02838,0.473687 2.30712,0.534748 1.4291,0.30879 2.73296,1.006601 4.11228,1.500318 1.56783,0.583177 3.19661,1.000766 4.68437,1.808015 0.91767,0.200914 2.47142,2.514256 3.08826,3.349397 0.40611,0.750828 1.71094,2.956564 1.72763,3.853284 0.006,0.333844 -0.0479,0.665753 -0.0719,0.99863 -0.28313,2.433709 -0.81149,4.804287 -1.37406,7.176762 -0.65705,2.31861 -1.55458,4.552983 -2.65224,6.662136 -1.18885,1.477144 -2.51082,2.901265 -4.1411,3.77005 -1.97973,0.920959 -4.07009,1.417125 -6.15031,1.993958 -2.56666,0.577036 -5.14125,1.28332 -7.7841,1.051018 -2.3683,-0.09754 -4.74682,-0.247283 -7.03623,-0.983067 -1.06037,-0.376051 -2.089525,-0.790366 -2.963161,-1.560274 -0.603522,-0.936027 -1.228065,-1.663466 -1.237178,-2.887839 -0.230918,-2.765624 0.03435,-5.57073 0.115438,-8.338436 0.183616,-1.978069 0.511969,-3.841169 1.524132,-5.541515 0.913159,-1.719682 2.028119,-3.267947 3.287029,-4.7018 1.76472,-1.865668 3.56102,-3.683372 5.67605,-5.070394 2.24379,-1.557812 4.59069,-2.973254 7.09131,-3.970082 5.0591,-2.222872 2.19724,-10.08191 -2.86186,-7.859039 z" />
  <circle
     id="path884"
     style="fill:#f8f8ff;stroke:#000000"
     cx="342.43637"
     cy="234.92728"
     r="0.16704825" />
  <path
     style="fill:#f8f8ff;stroke-width:1.06841"
     id="path886"
     d="m 172.89742,75.097665 c 4.14263,-0.225495 8.20558,-1.137992 12.19717,-2.328974 3.69976,-1.088524 7.06298,-3.097835 10.43938,-5.019891 2.48869,-1.24254 4.48645,-3.191312 6.27908,-5.41251 1.63511,-2.165726 2.70541,-4.707761 3.45584,-7.376106 0.64509,-2.600061 0.74173,-5.248533 0.2762,-7.88249 -0.81855,-2.994934 -2.68574,-5.118882 -5.00875,-6.798034 -2.04545,-1.330083 -4.33171,-1.654342 -6.65671,-1.775426 -2.48013,-0.04493 -4.95767,-0.161331 -7.41664,0.217359 -2.7227,0.492771 -5.21666,1.768515 -7.70811,3.003068 -2.20305,0.839012 -4.15069,2.185472 -6.02675,3.675056 -2.71627,2.242593 -4.71886,5.270637 -6.95129,8.036568 -2.35237,2.697457 -4.2713,5.755379 -6.07214,8.908857 -1.52666,2.413244 -2.78725,5.025374 -3.9042,7.691934 -0.85597,2.484763 -1.57441,5.170127 -1.41777,7.863543 0.0417,0.716386 0.18415,1.421373 0.27621,2.13206 1.37587,5.019866 4.04317,7.020814 8.34137,8.693139 3.01479,1.030113 6.03959,1.932689 9.16451,2.445088 2.70748,0.403779 5.44507,0.38589 8.17131,0.398509 3.7082,0.03844 7.41149,-0.279099 11.08674,-0.797876 3.48624,-0.583378 6.96456,-1.138055 10.4016,-2.014627 3.51537,-0.951941 6.90764,-2.206714 10.16103,-3.949354 2.93272,-1.592594 5.91221,-3.062854 8.64521,-5.050749 4.5277,-3.329879 0.24061,-10.363414 -4.28708,-7.033535 v 0 c -2.42637,1.813975 -5.16339,3.00752 -7.75979,4.489225 -2.71643,1.484963 -5.57113,2.481768 -8.5109,3.301531 -3.18208,0.82085 -6.40734,1.308511 -9.6347,1.862449 -3.338,0.473701 -6.70178,0.765883 -10.07013,0.728566 -2.36163,-0.01064 -4.73403,0.01953 -7.0815,-0.308408 -2.67387,-0.424254 -5.24784,-1.230933 -7.82983,-2.093657 -1.24253,-0.411536 -2.55571,-0.799883 -3.20909,-2.140005 -0.45475,-1.660845 0.073,-3.424941 0.56265,-5.010628 0.9616,-2.338222 2.08838,-4.608879 3.4252,-6.714615 1.57353,-2.765202 3.23807,-5.446404 5.31505,-7.795801 1.8525,-2.308278 3.51278,-4.830451 5.69771,-6.787024 1.45703,-1.162008 2.94271,-2.197979 4.67562,-2.814733 1.90359,-0.943553 3.78811,-1.985668 5.86746,-2.38086 0.62713,-0.246575 0.19939,-0.120247 1.3357,-0.124576 1.46917,-0.0056 2.93865,-0.01161 4.40757,0.02546 0.9805,0.04442 1.98802,0.04461 2.90307,0.487276 0.65966,0.3883 1.16414,0.887843 1.60293,1.552578 0.45823,0.781244 -0.0649,2.620685 -0.15309,3.529797 -0.39237,1.524981 -0.99669,2.978245 -1.87992,4.240383 -1.13724,1.471795 -2.38249,2.68264 -4.02016,3.463874 -2.89338,1.648106 -5.75867,3.417124 -8.92494,4.369762 -3.53326,1.069035 -7.13436,1.868107 -10.80504,2.058599 -5.43,0.497049 -4.79007,8.932253 0.63992,8.435205 z" />
  <path
     style="fill:#f8f8ff;stroke-width:1.06841"
     id="path888"
     d="m 242.12375,30.11274 c 2.4045,-1.89044 4.76879,-3.844089 7.12117,-5.813639 0.70406,-0.683944 1.4488,-1.313782 2.17348,-1.970355 0.21772,-0.197264 0.42656,-0.406525 0.64937,-0.596822 0.0787,-0.06725 0.34309,-0.222838 0.25362,-0.174423 -0.33492,0.181217 -0.66064,0.382256 -0.99095,0.573384 -5.81962,-1.38786 -1.63609,0.330198 -3.86788,-1.66915 -0.0596,-0.05339 -0.0108,0.168536 -0.0171,0.252727 -0.0123,0.164856 -0.0296,0.329303 -0.0388,0.494404 -0.0935,1.672247 0.0265,0.413395 -0.1827,2.191525 -0.50384,3.35152 -0.6457,6.745463 -0.94492,10.120507 -0.14269,3.233623 -0.86735,6.341386 -1.68846,9.431002 -0.98034,3.427311 -2.2573,6.739621 -3.33514,10.130996 -0.9613,3.095468 -1.56441,6.303069 -2.2169,9.488668 -0.57842,3.109644 -0.96172,6.251036 -1.34786,9.394164 -0.3856,2.936164 -0.51722,5.912984 -1.14746,8.804462 -0.27654,1.868465 -1.12021,3.720528 -1.01177,5.649866 0.0343,0.609925 0.1856,1.205047 0.27841,1.807571 0.8495,2.292885 2.07987,3.067479 4.11185,3.775551 0.33827,0.117873 0.94925,0.178967 1.19686,0.423632 1.40737,0.756136 2.93775,1.062873 4.48131,1.240966 3.13624,0.420028 5.85629,-1.160898 8.39146,-2.98866 1.83881,-1.380223 0.88649,-0.604167 2.83354,-2.362423 4.17705,-3.84331 -0.77106,-10.332125 -4.9481,-6.488813 v 0 c -1.32834,1.259272 -0.60143,0.63793 -2.1993,1.837484 -0.98053,0.767817 -2.04909,1.720246 -3.31524,1.579494 -0.79817,-0.07807 -1.56046,-0.198694 -2.27689,-0.629997 -0.66988,-0.282215 -1.51339,-0.690879 -2.2411,-0.808452 -0.067,-0.01086 0.10842,0.08985 0.15718,0.141509 1.04831,1.110478 0.6843,0.54938 1.22823,1.99508 0.001,0.247705 -0.0735,0.98752 -0.0529,0.740849 0.11386,-1.36252 0.70169,-2.663383 0.87633,-4.017027 0.643,-3.155337 0.91475,-6.365637 1.2744,-9.570902 0.35514,-2.9 0.70397,-5.797965 1.22941,-8.668709 0.5864,-2.870788 1.12362,-5.763118 1.97465,-8.557254 1.11984,-3.53191 2.4635,-6.975755 3.45832,-10.554489 0.9488,-3.59603 1.76985,-7.228214 1.95959,-10.984387 0.28689,-3.313872 0.43569,-6.643972 0.92673,-9.934307 0.23128,-2.275273 0.66198,-7.621077 -1.36099,-9.133487 -1.0989,-0.82156 -2.51605,-0.943238 -3.77408,-1.414855 -0.60976,0.255828 -1.24183,0.454965 -1.82928,0.767483 -1.26771,0.674409 -2.16937,2.122779 -3.34003,2.952872 -2.22164,1.862339 -4.45559,3.707875 -6.72246,5.501113 -4.53368,3.320028 -0.25928,10.362869 4.2744,7.042842 z" />
  <circle
     id="path890"
     style="fill:#da70d6;stroke:#000000"
     cx="579.35455"
     cy="204.39999"
     r="0.16704825" />
  <path
     style="fill:#da70d6;stroke-width:1.06841"
     id="path892"
     d="m 282.80849,57.472669 c 1.13116,-0.667339 2.06774,-1.907274 3.33344,-2.298593 0.0254,-0.0079 0.0137,0.07781 -0.0116,0.0859 -0.25188,0.0806 -0.51504,0.11004 -0.77256,0.165065 -2.04151,-0.738241 -1.57869,-0.183124 -2.76517,-1.952826 -0.0736,-0.109716 -0.0371,-0.315192 -0.14864,-0.374772 -0.077,-0.04109 -0.021,0.186601 -0.0283,0.280238 -0.0628,0.795565 0.009,0.349468 -0.13025,1.0209 -0.38222,1.809815 -0.83341,3.605047 -1.24188,5.412916 -0.42529,2.018683 -0.89061,4.02122 -1.3099,6.041815 -0.72775,2.31865 -1.27332,4.703181 -1.73367,7.101384 -0.32562,1.863065 -0.48942,3.775543 -0.98896,5.598003 -0.57231,1.727015 -1.06404,3.457011 -1.36793,5.270537 -0.35018,4.024173 1.13012,6.247513 4.57906,7.43066 2.07309,0.557516 4.06137,0.265017 6.07604,-0.397836 1.35321,-0.594737 0.74094,-0.309989 1.84172,-0.841292 4.98729,-2.410741 1.88356,-10.158221 -3.10373,-7.747479 v 0 c -0.74074,0.358683 -0.42507,0.193059 -0.95347,0.481711 -0.7535,0.249096 -1.06548,0.474378 -1.91085,0.315872 0.55856,0.606025 1.37587,1.389781 1.09458,2.390336 -0.0136,0.04808 -0.0249,-0.09687 -0.0373,-0.145307 0.23985,-1.560371 0.76755,-2.993824 1.2076,-4.495704 0.48849,-2.014183 0.82122,-4.065829 1.10569,-6.125709 0.44443,-2.35484 1.02911,-4.67167 1.70532,-6.958727 0.40696,-1.970871 0.86114,-3.924335 1.27782,-5.89299 0.44565,-1.997925 0.95655,-3.975923 1.3512,-5.984462 0.35698,-2.505576 0.66026,-5.61054 -1.3164,-7.524332 -0.70053,-0.678258 -1.68287,-0.889692 -2.5243,-1.334537 -0.60309,0.02149 -1.21279,-0.03571 -1.80927,0.06446 -2.31255,0.388342 -4.14084,2.332202 -6.04158,3.643218 -4.35904,3.591159 0.26443,10.362714 4.62348,6.771554 z" />
  <path
     style="fill:#da70d6;stroke-width:1.06841"
     id="path894"
     d="m 285.67175,29.693124 c -1.55701,-1.903888 -3.24493,-3.709417 -4.64906,-5.75512 -0.8331,-1.112044 -1.70709,-2.222326 -1.96151,-3.666353 0.12611,0.301965 0.1173,-0.281189 0.11948,-0.20116 0.006,0.21678 -0.0651,0.436459 -0.0297,0.649813 0.011,0.06607 0.0553,-0.132424 0.11094,-0.160442 0.0283,-0.0143 0.002,0.06852 0.003,0.102772 0.11787,-0.157218 0.23575,-0.314435 0.35361,-0.471652 0.49043,-0.357462 0.81201,-1.068775 1.42235,-1.237214 0.31012,0.112142 1.3563,-0.373498 1.57178,0.06897 -0.8377,-0.347558 0.56847,0.735322 -0.59705,-0.239441 0.0481,1.283217 0.14624,2.55128 0.33791,3.819706 0.11165,0.421819 0.22329,0.843635 0.33494,1.265452 1.71446,5.681263 9.02887,3.017935 7.3144,-2.663328 v 0 c -0.0173,-0.0053 -0.0346,-0.01086 -0.0519,-0.01624 -0.25705,-1.615251 -0.14874,-3.274285 -0.56271,-4.867362 -0.89299,-2.830268 -2.28681,-4.45684 -4.85603,-5.496383 -2.3753,-0.562482 -4.71921,-0.509619 -6.98013,0.581389 -1.48538,0.885038 -2.76695,2.00775 -3.88367,3.405871 -1.7177,2.294275 -2.58356,4.500033 -2.07926,7.530565 0.62767,2.54574 1.73911,4.79747 3.34063,6.777801 1.52285,2.125179 3.20575,4.109991 4.8908,6.080945 3.54604,4.544353 9.39671,-0.964235 5.85067,-5.508586 z" />
  <path
     style="fill:#da70d6;stroke-width:1.06841"
     id="path896"
     d="m 290.36496,20.144054 c 0.9685,-0.837505 2.11984,-1.651226 3.3895,-1.680178 0.90738,0.108405 0.15049,0.268453 -0.69862,-0.586359 -0.0755,-0.109076 -0.11552,-0.265055 -0.22673,-0.327243 -0.0303,-0.01691 0.005,0.139733 0.04,0.666735 0.0433,0.665495 0.0531,1.331259 0.0625,1.998107 -0.13202,1.310308 0.21193,2.733826 -0.0653,4.022194 -0.42869,1.171318 -1.12401,2.211612 -1.757,3.25946 -0.0192,0.03453 -0.62198,1.176367 -0.81711,1.382219 -0.0292,0.03074 0.0375,-0.14585 -10e-4,-0.133138 -0.46544,0.152836 -0.93828,0.710487 -1.36769,0.984611 -1.42071,0.739024 -2.80027,1.544763 -4.14012,2.449032 -0.5439,0.279335 -0.1894,0.08405 -1.03407,0.646274 -4.61351,3.184594 -0.51347,10.351428 4.10004,7.166836 v 0 c 0.42071,-0.33438 0.11376,-0.10426 0.97043,-0.60282 1.32442,-0.895258 2.71145,-1.638504 4.09595,-2.419424 1.83235,-1.243925 3.61482,-2.639269 4.62182,-4.805528 1.28343,-2.138694 2.60826,-4.302757 2.97676,-6.891021 0.15737,-1.72881 0.13361,-3.461555 0.12233,-5.198493 -0.0368,-2.323614 -0.0911,-4.666399 -1.09946,-6.776663 -0.30714,-0.435225 -0.56398,-0.919565 -0.92144,-1.305672 -1.51809,-1.639791 -3.65777,-2.0888663 -5.70409,-1.942725 -2.81217,0.410461 -5.39152,1.625446 -7.56119,3.667112 -4.13704,3.895159 0.87782,10.321844 5.01487,6.426684 z" />
  <path
     style="fill:#da70d6;stroke-width:1.06841"
     id="path898"
     d="m 319.79225,25.541103 c 1.24011,-1.506135 2.5273,-2.948199 3.97324,-4.217123 0.59085,-0.371496 1.04699,-0.920539 1.73533,-1.00911 0.096,-0.01155 0.19858,-0.07457 0.28808,-0.03463 0.0675,0.03011 -0.16434,0.0067 -0.20897,0.06993 -0.0275,0.03903 0.17393,0.04372 0.12896,0.04337 -0.61155,-0.0049 -1.0236,-0.375619 -1.46828,-0.783014 -0.0983,-0.140539 -0.16993,-0.309291 -0.29467,-0.421615 -0.14404,-0.129697 0.0259,0.408755 0.0218,0.613288 -0.0117,0.576652 -0.20734,1.156652 -0.36383,1.696868 -0.73019,2.383902 -1.26183,4.827534 -1.82375,7.262694 -0.69892,2.873656 -1.46629,5.725293 -2.24701,8.573156 -0.73752,2.834157 -1.42026,5.69045 -2.34027,8.461654 -0.95646,3.269185 -2.03337,6.490387 -2.94811,9.774271 -0.95279,3.33302 -1.93817,6.660453 -2.76348,10.035401 -0.69918,2.663505 -1.27527,5.374337 -1.762,8.095164 -0.23856,2.120601 -0.65979,4.205132 -0.93588,6.319198 -0.23171,2.351417 -0.36644,4.723302 -0.21607,7.084173 0.22887,3.050482 1.93977,5.370826 4.66925,6.118235 0.46837,0.128258 0.96046,0.107386 1.44071,0.161072 2.27937,0.05256 4.48673,-0.65052 6.6081,-1.497279 2.28407,-1.036507 4.47089,-2.290131 6.61345,-3.635834 1.64613,-0.971747 3.18353,-2.151288 4.72139,-3.313322 4.48742,-3.395018 0.11647,-10.365993 -4.37095,-6.970974 v 0 c -1.35984,1.030257 -2.71482,2.083469 -4.17538,2.936234 -1.78064,1.118384 -3.58929,2.165956 -5.47885,3.052091 -1.118,0.478769 -2.30463,0.883455 -3.50319,0.976901 2.5e-4,0.02812 0.82589,0.735664 0.92409,0.931116 0.143,0.284646 0.24365,0.593726 0.3384,0.901731 0.009,0.02934 -0.027,0.11437 -0.035,0.08464 -0.0437,-0.16303 -0.0515,-0.335192 -0.0773,-0.502788 -0.24432,-1.68042 0.12913,-3.452021 0.17074,-5.137879 0.25064,-1.972338 0.66136,-3.914501 0.87091,-5.894047 0.44021,-2.530528 0.99266,-5.046244 1.64144,-7.520747 0.79539,-3.280857 1.76685,-6.509813 2.68882,-9.749146 0.8752,-3.149655 1.91444,-6.235954 2.82635,-9.372813 0.95329,-2.921269 1.71208,-5.910589 2.47175,-8.898278 0.81256,-2.968787 1.61331,-5.940994 2.33871,-8.937246 0.54599,-2.377618 1.06969,-4.760366 1.78164,-7.087634 0.73154,-3.115104 0.95308,-6.187976 -0.54188,-9.089435 -0.34718,-0.430775 -0.64116,-0.921421 -1.04156,-1.292328 -1.60559,-1.487348 -3.74751,-1.713214 -5.72944,-1.287405 -1.79759,0.513996 -3.35645,1.42716 -4.82009,2.680969 -1.78157,1.611846 -3.42873,3.371906 -4.95796,5.27189 -3.54604,4.544352 2.30462,10.052938 5.85067,5.508585 z" />
  <path
     style="fill:#da70d6;stroke-width:1.06841"
     id="path900"
     d="m 317.62035,59.489308 c 3.47538,-0.198195 6.9162,-0.481016 10.322,-1.289546 2.42352,-0.642512 4.81981,-1.412129 7.18319,-2.283141 5.16349,-1.911395 2.70265,-9.932613 -2.46085,-8.021216 v 0 c -2.09849,0.780906 -4.23073,1.455775 -6.38169,2.038497 -3.08197,0.766712 -6.21498,0.89701 -9.36029,1.125724 -5.42644,0.541881 -4.7288,8.971563 0.69764,8.429682 z" />
  <ellipse
     id="path902"
     style="fill:#87cefa;stroke:#000000;stroke-width:1.06841"
     cx="337.35345"
     cy="128.18947"
     rx="0.17029093"
     ry="0.1870565" />
  <path
     style="fill:#87cefa;stroke-width:1.06841"
     id="path904"
     d="m 362.7747,43.242469 c 0.93372,-1.786958 2.02534,-3.572797 3.58779,-4.762678 1.87313,-1.022696 3.88296,-1.664602 5.91862,-2.153399 1.95245,-0.410374 3.94163,-0.486385 5.9235,-0.525055 1.24568,0.07592 2.51694,-0.129086 3.76023,-0.0038 0.30068,0.0303 0.56827,0.224403 0.85244,0.336495 1.72597,0.536094 3.18799,1.660203 4.54112,2.916595 1.16414,1.028179 1.78213,2.374584 2.43599,3.786744 0.44921,1.386209 0.44109,2.91619 0.49613,4.371718 0.21395,2.358349 -0.59823,4.544657 -1.1912,6.76201 -0.75488,2.472444 -1.55577,4.928892 -2.27552,7.413435 -0.80399,2.962589 -1.26664,6.011767 -1.79729,9.042111 -0.46502,2.509695 -0.65828,5.061543 -0.75251,7.616021 -0.0582,2.16018 -0.0468,4.32172 -0.0437,6.482583 -0.0714,1.659638 0.17443,3.282562 0.52455,4.886702 1.40754,5.782121 8.85179,3.59558 7.44425,-2.18654 v 0 c -0.31075,-0.835636 -0.23883,-1.833365 -0.26302,-2.713286 -0.003,-2.044347 -0.0141,-4.089306 0.0377,-6.133082 0.0754,-2.130958 0.22836,-4.260528 0.61991,-6.353691 0.4752,-2.714184 0.88112,-5.446324 1.58211,-8.105265 0.71288,-2.542248 1.57464,-5.034991 2.31811,-7.567565 0.82834,-3.110077 1.78624,-6.213939 1.49517,-9.51187 -0.11001,-2.673178 -0.25034,-5.4031 -1.33236,-7.853904 -1.13782,-2.432432 -2.42639,-4.685701 -4.38069,-6.452898 -2.16073,-1.942647 -4.50112,-3.646077 -7.21585,-4.497796 -2.39367,-0.745805 -4.53478,-0.813888 -6.99686,-0.697754 -2.49705,0.05174 -5.00143,0.176151 -7.45597,0.725737 -3.09934,0.767783 -6.19772,1.775937 -8.89843,3.669161 -2.34275,2.018528 -4.25923,4.505518 -5.67022,7.398555 -2.64618,5.232062 4.08989,9.34276 6.73607,4.110697 z" />
  <path
     style="fill:#87cefa;stroke-width:1.06841"
     id="path906"
     d="m 390.68913,64.002879 c -1.41449,-2.370647 -2.99018,-4.613019 -4.74214,-6.692267 -2.02487,-2.36501 -4.29484,-3.336537 -7.16046,-3.796454 -2.29167,-0.307459 -4.58247,0.125995 -6.81656,0.660326 -2.03802,0.426644 -4.03482,1.088656 -6.00272,1.804263 -2.29564,0.813085 -4.40996,1.936379 -6.41382,3.403438 -2.4122,1.679676 -4.32427,4.006229 -6.2376,6.299166 -1.9995,2.624247 -2.93857,5.852044 -3.65941,9.11907 -0.37522,2.165103 -0.76083,4.404573 -0.38402,6.6059 0.0958,0.559525 0.28503,1.094771 0.42754,1.642157 0.71627,2.294568 1.7299,4.446894 2.96472,6.451638 2.20242,2.807607 4.09433,4.041784 7.35978,5.013233 3.17659,0.66728 6.42188,0.722169 9.64526,0.770785 1.84775,0.0188 3.69557,0.0016 5.54332,-0.0078 2.03474,0.108215 3.97625,-0.61184 5.88075,-1.301848 1.01616,-0.412675 1.94164,-0.981169 2.86502,-1.591621 4.60585,-3.197918 0.48867,-10.352876 -4.1172,-7.154957 v 0 c -0.36045,0.306057 -0.78899,0.46153 -1.17957,0.714663 -1.13631,0.419857 -2.26899,0.946955 -3.48402,0.869407 -1.80125,0.0089 -3.60255,0.0259 -5.40381,0.0084 -2.6314,-0.03867 -5.27608,-0.07599 -7.88213,-0.519197 -1.31825,-0.29017 -1.81163,-0.657266 -2.87439,-1.59151 -0.83694,-1.306041 -1.47759,-2.743299 -1.97876,-4.241781 -0.0494,-0.111205 -0.0844,-0.231645 -0.14822,-0.333619 -0.0199,-0.03177 -0.0915,-0.0144 -0.0937,-0.05287 -0.0614,-1.105049 0.21705,-2.232223 0.35456,-3.315633 0.39656,-1.864652 0.83777,-3.774167 1.84555,-5.36603 1.49775,-1.796026 2.94478,-3.669835 4.8389,-4.980819 1.43686,-1.059138 2.9239,-1.855894 4.59068,-2.41853 1.69133,-0.642458 3.4286,-1.182578 5.18541,-1.555984 1.35377,-0.324991 2.74419,-0.676518 4.13518,-0.543211 1.04643,0.133787 1.80874,0.239634 2.55763,1.174546 1.57839,1.851331 2.94103,3.895142 4.21954,6.005724 3.2693,4.788213 9.43392,-0.290454 6.16464,-5.078666 z" />
  <path
     style="fill:#87cefa;stroke-width:1.06841"
     id="path908"
     d="m 387.00559,90.694199 c 1.22928,1.419065 0.57854,0.713476 1.95862,2.109572 4.0303,4.027936 9.21611,-2.232913 5.18581,-6.260851 v 0 c -0.90472,-0.887215 -0.4744,-0.433709 -1.29375,-1.357308 -3.54605,-4.544353 -9.39672,0.964235 -5.85068,5.508587 z" />
</svg>
